<svg width="48.750000" height="56.875000" viewBox="0 0 48.75 56.875" fill="none" xmlns="http://www.w3.org/2000/svg" xmlns:xlink="http://www.w3.org/1999/xlink">
	<desc>
			Created with Pixso.
	</desc>
	<defs/>
	<rect id="Frame 608" width="48.750000" height="56.875000" fill="#FFFFFF" fill-opacity="0"/>
	<path id="Vector" d="M44.6875 56.875L40.625 56.875L40.625 50.7812C40.6218 48.0898 39.5508 45.5078 37.6469 43.6016C35.7428 41.6992 33.1614 40.6289 30.4688 40.625L18.2812 40.625C15.5886 40.6289 13.0072 41.6992 11.1031 43.6016C9.19922 45.5078 8.12817 48.0898 8.125 50.7812L8.125 56.875L4.0625 56.875L4.0625 50.7812C4.06689 47.0117 5.56641 43.3984 8.23193 40.7305C10.8976 38.0664 14.5116 36.5664 18.2812 36.5625L30.4688 36.5625C34.2384 36.5664 37.8525 38.0664 40.5181 40.7305C43.1836 43.3984 44.6831 47.0117 44.6875 50.7812L44.6875 56.875Z" fill="#FFFFFF" fill-opacity="1.000000" fill-rule="nonzero"/>
	<path id="Vector" d="M2.03125 8.125C1.49255 8.125 0.97583 8.33984 0.594971 8.71875C0.213989 9.10156 0 9.61719 0 10.1562L0 28.4375L4.0625 28.4375L4.0625 10.1562C4.0625 9.61719 3.84851 9.10156 3.46753 8.71875C3.08667 8.33984 2.56995 8.125 2.03125 8.125Z" fill="#FFFFFF" fill-opacity="1.000000" fill-rule="nonzero"/>
	<path id="Vector" d="M0 0L0 4.0625L10.1562 4.0625L10.1562 18.2812C10.1562 22.0508 11.6543 25.668 14.3208 28.3359C16.9873 31.0039 20.604 32.5 24.375 32.5C28.146 32.5 31.7627 31.0039 34.4292 28.3359C37.0957 25.668 38.5938 22.0508 38.5938 18.2812L38.5938 4.0625L48.75 4.0625L48.75 0L0 0ZM14.2188 4.0625L34.5312 4.0625L34.5312 10.1562L14.2188 10.1562L14.2188 4.0625ZM24.375 28.4375C21.6814 28.4375 19.0981 27.3672 17.1935 25.4609C15.2888 23.5586 14.2188 20.9766 14.2188 18.2812L14.2188 14.2188L34.5312 14.2188L34.5312 18.2812C34.5312 20.9766 33.4612 23.5586 31.5565 25.4609C29.6519 27.3672 27.0686 28.4375 24.375 28.4375Z" fill="#FFFFFF" fill-opacity="1.000000" fill-rule="nonzero"/>
</svg>
