<svg width="204.000000" height="204.000000" viewBox="0 0 204 204" fill="none" xmlns="http://www.w3.org/2000/svg" xmlns:xlink="http://www.w3.org/1999/xlink">
	<desc>
			Created with Pixso.
	</desc>
	<defs>
		<clipPath id="clip318_15448">
			<rect id="elements" width="204.000000" height="204.000000" fill="white" fill-opacity="0"/>
		</clipPath>
	</defs>
	<g clip-path="url(#clip318_15448)">
		<circle id="Ellipse 196" cx="4.000000" cy="4.000000" r="4.000000" fill="#5AC4FF" fill-opacity="1.000000"/>
		<circle id="Ellipse 230" cx="4.000000" cy="116.000000" r="4.000000" fill="#5AC4FF" fill-opacity="1.000000"/>
		<circle id="Ellipse 214" cx="116.000000" cy="4.000000" r="4.000000" fill="#5AC4FF" fill-opacity="1.000000"/>
		<circle id="Ellipse 231" cx="116.000000" cy="116.000000" r="4.000000" fill="#5AC4FF" fill-opacity="1.000000"/>
		<circle id="Ellipse 206" cx="4.000000" cy="60.000000" r="4.000000" fill="#5AC4FF" fill-opacity="1.000000"/>
		<circle id="Ellipse 232" cx="4.000000" cy="172.000000" r="4.000000" fill="#5AC4FF" fill-opacity="1.000000"/>
		<circle id="Ellipse 215" cx="116.000000" cy="60.000000" r="4.000000" fill="#5AC4FF" fill-opacity="1.000000"/>
		<circle id="Ellipse 233" cx="116.000000" cy="172.000000" r="4.000000" fill="#5AC4FF" fill-opacity="1.000000"/>
		<circle id="Ellipse 202" cx="60.000000" cy="4.000000" r="4.000000" fill="#5AC4FF" fill-opacity="1.000000"/>
		<circle id="Ellipse 234" cx="60.000000" cy="116.000000" r="4.000000" fill="#5AC4FF" fill-opacity="1.000000"/>
		<circle id="Ellipse 216" cx="172.000000" cy="4.000000" r="4.000000" fill="#5AC4FF" fill-opacity="1.000000"/>
		<circle id="Ellipse 235" cx="172.000000" cy="116.000000" r="4.000000" fill="#5AC4FF" fill-opacity="1.000000"/>
		<circle id="Ellipse 207" cx="60.000000" cy="60.000000" r="4.000000" fill="#5AC4FF" fill-opacity="1.000000"/>
		<circle id="Ellipse 236" cx="60.000000" cy="172.000000" r="4.000000" fill="#5AC4FF" fill-opacity="1.000000"/>
		<circle id="Ellipse 217" cx="172.000000" cy="60.000000" r="4.000000" fill="#5AC4FF" fill-opacity="1.000000"/>
		<circle id="Ellipse 237" cx="172.000000" cy="172.000000" r="4.000000" fill="#5AC4FF" fill-opacity="1.000000"/>
		<circle id="Ellipse 200" cx="4.000000" cy="32.000000" r="4.000000" fill="#5AC4FF" fill-opacity="1.000000"/>
		<circle id="Ellipse 238" cx="4.000000" cy="144.000000" r="4.000000" fill="#5AC4FF" fill-opacity="1.000000"/>
		<circle id="Ellipse 218" cx="116.000000" cy="32.000000" r="4.000000" fill="#5AC4FF" fill-opacity="1.000000"/>
		<circle id="Ellipse 239" cx="116.000000" cy="144.000000" r="4.000000" fill="#5AC4FF" fill-opacity="1.000000"/>
		<circle id="Ellipse 208" cx="4.000000" cy="88.000000" r="4.000000" fill="#5AC4FF" fill-opacity="1.000000"/>
		<circle id="Ellipse 240" cx="4.000000" cy="200.000000" r="4.000000" fill="#5AC4FF" fill-opacity="1.000000"/>
		<circle id="Ellipse 219" cx="116.000000" cy="88.000000" r="4.000000" fill="#5AC4FF" fill-opacity="1.000000"/>
		<circle id="Ellipse 241" cx="116.000000" cy="200.000000" r="4.000000" fill="#5AC4FF" fill-opacity="1.000000"/>
		<circle id="Ellipse 203" cx="60.000000" cy="32.000000" r="4.000000" fill="#5AC4FF" fill-opacity="1.000000"/>
		<circle id="Ellipse 242" cx="60.000000" cy="144.000000" r="4.000000" fill="#5AC4FF" fill-opacity="1.000000"/>
		<circle id="Ellipse 220" cx="172.000000" cy="32.000000" r="4.000000" fill="#5AC4FF" fill-opacity="1.000000"/>
		<circle id="Ellipse 243" cx="172.000000" cy="144.000000" r="4.000000" fill="#5AC4FF" fill-opacity="1.000000"/>
		<circle id="Ellipse 209" cx="60.000000" cy="88.000000" r="4.000000" fill="#5AC4FF" fill-opacity="1.000000"/>
		<circle id="Ellipse 244" cx="60.000000" cy="200.000000" r="4.000000" fill="#5AC4FF" fill-opacity="1.000000"/>
		<circle id="Ellipse 221" cx="172.000000" cy="88.000000" r="4.000000" fill="#5AC4FF" fill-opacity="1.000000"/>
		<circle id="Ellipse 245" cx="172.000000" cy="200.000000" r="4.000000" fill="#5AC4FF" fill-opacity="1.000000"/>
		<circle id="Ellipse 199" cx="32.000000" cy="4.000000" r="4.000000" fill="#5AC4FF" fill-opacity="1.000000"/>
		<circle id="Ellipse 246" cx="32.000000" cy="116.000000" r="4.000000" fill="#5AC4FF" fill-opacity="1.000000"/>
		<circle id="Ellipse 222" cx="144.000000" cy="4.000000" r="4.000000" fill="#5AC4FF" fill-opacity="1.000000"/>
		<circle id="Ellipse 247" cx="144.000000" cy="116.000000" r="4.000000" fill="#5AC4FF" fill-opacity="1.000000"/>
		<circle id="Ellipse 210" cx="32.000000" cy="60.000000" r="4.000000" fill="#5AC4FF" fill-opacity="1.000000"/>
		<circle id="Ellipse 248" cx="32.000000" cy="172.000000" r="4.000000" fill="#5AC4FF" fill-opacity="1.000000"/>
		<circle id="Ellipse 223" cx="144.000000" cy="60.000000" r="4.000000" fill="#5AC4FF" fill-opacity="1.000000"/>
		<circle id="Ellipse 249" cx="144.000000" cy="172.000000" r="4.000000" fill="#5AC4FF" fill-opacity="1.000000"/>
		<circle id="Ellipse 204" cx="88.000000" cy="4.000000" r="4.000000" fill="#5AC4FF" fill-opacity="1.000000"/>
		<circle id="Ellipse 250" cx="88.000000" cy="116.000000" r="4.000000" fill="#5AC4FF" fill-opacity="1.000000"/>
		<circle id="Ellipse 224" cx="200.000000" cy="4.000000" r="4.000000" fill="#5AC4FF" fill-opacity="1.000000"/>
		<circle id="Ellipse 251" cx="200.000000" cy="116.000000" r="4.000000" fill="#5AC4FF" fill-opacity="1.000000"/>
		<circle id="Ellipse 211" cx="88.000000" cy="60.000000" r="4.000000" fill="#5AC4FF" fill-opacity="1.000000"/>
		<circle id="Ellipse 252" cx="88.000000" cy="172.000000" r="4.000000" fill="#5AC4FF" fill-opacity="1.000000"/>
		<circle id="Ellipse 225" cx="200.000000" cy="60.000000" r="4.000000" fill="#5AC4FF" fill-opacity="1.000000"/>
		<circle id="Ellipse 253" cx="200.000000" cy="172.000000" r="4.000000" fill="#5AC4FF" fill-opacity="1.000000"/>
		<circle id="Ellipse 201" cx="32.000000" cy="32.000000" r="4.000000" fill="#5AC4FF" fill-opacity="1.000000"/>
		<circle id="Ellipse 254" cx="32.000000" cy="144.000000" r="4.000000" fill="#5AC4FF" fill-opacity="1.000000"/>
		<circle id="Ellipse 226" cx="144.000000" cy="32.000000" r="4.000000" fill="#5AC4FF" fill-opacity="1.000000"/>
		<circle id="Ellipse 255" cx="144.000000" cy="144.000000" r="4.000000" fill="#5AC4FF" fill-opacity="1.000000"/>
		<circle id="Ellipse 212" cx="32.000000" cy="88.000000" r="4.000000" fill="#5AC4FF" fill-opacity="1.000000"/>
		<circle id="Ellipse 256" cx="32.000000" cy="200.000000" r="4.000000" fill="#5AC4FF" fill-opacity="1.000000"/>
		<circle id="Ellipse 227" cx="144.000000" cy="88.000000" r="4.000000" fill="#5AC4FF" fill-opacity="1.000000"/>
		<circle id="Ellipse 257" cx="144.000000" cy="200.000000" r="4.000000" fill="#5AC4FF" fill-opacity="1.000000"/>
		<circle id="Ellipse 205" cx="88.000000" cy="32.000000" r="4.000000" fill="#5AC4FF" fill-opacity="1.000000"/>
		<circle id="Ellipse 258" cx="88.000000" cy="144.000000" r="4.000000" fill="#5AC4FF" fill-opacity="1.000000"/>
		<circle id="Ellipse 228" cx="200.000000" cy="32.000000" r="4.000000" fill="#5AC4FF" fill-opacity="1.000000"/>
		<circle id="Ellipse 259" cx="200.000000" cy="144.000000" r="4.000000" fill="#5AC4FF" fill-opacity="1.000000"/>
		<circle id="Ellipse 213" cx="88.000000" cy="88.000000" r="4.000000" fill="#5AC4FF" fill-opacity="1.000000"/>
		<circle id="Ellipse 260" cx="88.000000" cy="200.000000" r="4.000000" fill="#5AC4FF" fill-opacity="1.000000"/>
		<circle id="Ellipse 229" cx="200.000000" cy="88.000000" r="4.000000" fill="#5AC4FF" fill-opacity="1.000000"/>
		<circle id="Ellipse 261" cx="200.000000" cy="200.000000" r="4.000000" fill="#5AC4FF" fill-opacity="1.000000"/>
	</g>
</svg>
