<svg width="27.000000" height="35.000000" viewBox="0 0 27 35" fill="none" xmlns="http://www.w3.org/2000/svg" xmlns:xlink="http://www.w3.org/1999/xlink">
	<desc>
			Created with Pixso.
	</desc>
	<defs/>
	<path id="Vector" d="M8.4375 4.92188C8.4375 2.20312 10.704 0 13.5 0C16.296 0 18.5625 2.20312 18.5625 4.92188C18.5625 7.64062 16.296 9.84375 13.5 9.84375C10.704 9.84375 8.4375 7.64062 8.4375 4.92188ZM26.3409 5.01562C25.4623 4.16016 24.0377 4.16016 23.159 5.01562L17.068 10.9375L9.93188 10.9375L3.84094 5.01562C2.96234 4.16016 1.53766 4.16016 0.658997 5.01562C-0.219666 5.87109 -0.219666 7.25391 0.658997 8.10938L7.3125 14.5781L7.3125 32.8125C7.3125 34.0195 8.31982 35 9.5625 35L10.6875 35C11.9301 35 12.9375 34.0195 12.9375 32.8125L12.9375 25.1562L14.0625 25.1562L14.0625 32.8125C14.0625 34.0195 15.0698 35 16.3125 35L17.4375 35C18.6801 35 19.6875 34.0195 19.6875 32.8125L19.6875 14.5781L26.3409 8.10938C27.2197 7.25391 27.2197 5.87109 26.3409 5.01562Z" fill="#B4E4FF" fill-opacity="1.000000" fill-rule="nonzero"/>
</svg>
