<svg width="70.000000" height="70.000000" viewBox="0 0 70 70" fill="none" xmlns="http://www.w3.org/2000/svg" xmlns:xlink="http://www.w3.org/1999/xlink">
	<desc>
			Created with Pixso.
	</desc>
	<defs>
		<clipPath id="clip318_7368">
			<rect id="8396420_think_idea_work_mind_thinking_icon 1" width="70.000000" height="70.000000" fill="white" fill-opacity="0"/>
		</clipPath>
	</defs>
	<g clip-path="url(#clip318_7368)">
		<path id="Vector" d="M59.0623 70L26.2498 70C25.6696 70 25.1132 69.7695 24.703 69.3594C24.2928 68.9492 24.0623 68.3906 24.0623 67.8125L24.0623 61.25L19.6873 61.25C17.9468 61.25 16.2776 60.5586 15.0469 59.3281C13.8162 58.0977 13.1248 56.4258 13.1248 54.6875L13.1248 47.2891L5.58447 43.5312C5.30673 43.3906 5.06168 43.1953 4.86563 42.9531C4.66956 42.7148 4.52695 42.4336 4.44727 42.1328C4.36761 41.8359 4.35272 41.5195 4.40359 41.2148C4.45444 40.9102 4.56992 40.6172 4.74228 40.3594L13.1248 27.7617C13.2612 21.8008 15.2683 16.0312 18.8624 11.2773C22.4564 6.51953 27.4553 3.01172 33.1519 1.25C38.8484 -0.507812 44.9543 -0.433594 50.6056 1.46875C56.2568 3.36719 61.1674 6.99609 64.6426 11.8438C64.8109 12.0742 64.9318 12.3398 64.9982 12.6172C65.0646 12.8984 65.0753 13.1875 65.0297 13.4727C64.9841 13.7539 64.8831 14.0273 64.7324 14.2734C64.5817 14.5156 64.3843 14.7305 64.1515 14.8984C63.9187 15.0664 63.655 15.1875 63.3754 15.2539C63.0959 15.3203 62.806 15.3281 62.5224 15.2852C62.2387 15.2383 61.9668 15.1367 61.7222 14.9883C61.4775 14.8359 61.265 14.6406 61.0966 14.4062C58.1248 10.2734 53.9193 7.19141 49.0847 5.60156C44.2502 4.00781 39.0356 3.99219 34.1907 5.55078C29.3457 7.10938 25.12 10.1641 22.1209 14.2773C19.1219 18.3906 17.5039 23.3477 17.4998 28.4375C17.4991 28.8672 17.3713 29.2891 17.1323 29.6523L9.75604 40.7148L16.2901 43.9805C16.6537 44.1602 16.9595 44.4414 17.1732 44.7852C17.3869 45.1328 17.5 45.5312 17.4998 45.9375L17.4998 54.6875C17.4998 55.2656 17.7303 55.8242 18.1405 56.2344C18.5507 56.6445 19.1071 56.875 19.6873 56.875L26.2498 56.875C26.83 56.875 27.3864 57.1055 27.7966 57.5156C28.2068 57.9258 28.4373 58.4805 28.4373 59.0625L28.4373 65.625L56.8748 65.625L56.8748 61.1758C56.7844 54.0234 58.6326 46.9805 62.2232 40.7969C64.8892 36.3359 66.0403 31.1328 65.5045 25.9688C65.3889 24.7695 65.179 23.5859 64.8766 22.4219C64.7458 21.8672 64.8381 21.2812 65.1339 20.793C65.4297 20.3008 65.9054 19.9492 66.4591 19.8047C67.0128 19.6602 67.6005 19.7422 68.0963 20.0273C68.5922 20.3125 68.9566 20.7773 69.1116 21.3281C69.4695 22.7148 69.7196 24.1211 69.8598 25.543C70.4908 31.6445 69.1285 37.7852 65.977 43.043C62.7932 48.5508 61.1596 54.8164 61.2498 61.1758L61.2498 67.8125C61.2498 68.3906 61.0193 68.9492 60.6091 69.3594C60.1989 69.7695 59.6425 70 59.0623 70Z" fill="#FFFFFF" fill-opacity="1.000000" fill-rule="nonzero"/>
		<path id="Vector" d="M30.625 61.25L26.25 61.25C25.6698 61.25 25.1134 61.0195 24.7032 60.6094C24.293 60.1992 24.0625 59.6445 24.0625 59.0625C24.0625 58.4805 24.293 57.9258 24.7032 57.5156C25.1134 57.1055 25.6698 56.875 26.25 56.875L30.625 56.875C31.2052 56.875 31.7616 57.1055 32.1718 57.5156C32.582 57.9258 32.8125 58.4805 32.8125 59.0625C32.8125 59.6445 32.582 60.1992 32.1718 60.6094C31.7616 61.0195 31.2052 61.25 30.625 61.25Z" fill="#FFFFFF" fill-opacity="1.000000" fill-rule="nonzero"/>
		<path id="Vector" d="M43.9077 41.5625L39.2177 41.5625C38.1426 41.5625 37.1078 41.1523 36.3241 40.418C35.5405 39.6797 35.067 38.6758 35.0002 37.6016C34.0395 38.082 32.9322 38.1758 31.9041 37.8672C30.876 37.5547 30.0048 36.8672 29.468 35.9375L27.1252 31.875C26.591 30.9453 26.4309 29.8438 26.6775 28.8008C26.9241 27.7578 27.5588 26.8438 28.453 26.25C27.5588 25.6562 26.9241 24.7422 26.6775 23.6992C26.4309 22.6562 26.591 21.5547 27.1252 20.625L29.4702 16.5625C30.0069 15.6328 30.8778 14.9453 31.9054 14.6367C32.9329 14.3281 34.0397 14.4219 35.0002 14.8984C35.067 13.8242 35.5405 12.8203 36.3241 12.082C37.1078 11.3477 38.1426 10.9375 39.2177 10.9375L43.9077 10.9375C44.9832 10.9375 46.0186 11.3438 46.8024 12.082C47.5863 12.8164 48.0594 13.8242 48.1252 14.8984C49.0864 14.418 50.1945 14.3242 51.2231 14.6328C52.2517 14.9453 53.1232 15.6367 53.6596 16.5664L56.0002 20.625C56.5344 21.5547 56.6945 22.6562 56.4479 23.6992C56.2013 24.7422 55.5666 25.6562 54.6724 26.25C55.5656 26.8438 56.1996 27.7578 56.4457 28.8008C56.6918 29.8438 56.5318 30.9453 55.998 31.875L53.6508 35.9375C53.1137 36.8672 52.242 37.5547 51.2136 37.8672C50.1852 38.1758 49.0775 38.082 48.1165 37.6016C48.0508 38.6719 47.5789 39.6797 46.7968 40.4141C46.0149 41.1523 44.9816 41.5625 43.9077 41.5625ZM39.3752 37.1875L43.7502 37.1875C43.7769 36.4727 43.984 35.7812 44.3523 35.168C44.7205 34.5547 45.2379 34.0469 45.8559 33.6914C46.4739 33.3359 47.1725 33.1406 47.8861 33.125C48.5997 33.1133 49.3052 33.2812 49.9365 33.6133L52.124 29.8203C51.5193 29.4414 51.0208 28.9141 50.6753 28.2891C50.3298 27.668 50.1485 26.9648 50.1485 26.25C50.1485 25.5352 50.3298 24.832 50.6753 24.2109C51.0208 23.5859 51.5193 23.0586 52.124 22.6797L49.9365 18.8867C49.3052 19.2188 48.5997 19.3867 47.8861 19.375C47.1725 19.3594 46.4739 19.1641 45.8559 18.8086C45.2379 18.4531 44.7205 17.9453 44.3523 17.332C43.984 16.7188 43.7769 16.0273 43.7502 15.3125L39.3752 15.3125C39.3482 16.0273 39.1408 16.7188 38.7724 17.332C38.404 17.9414 37.8866 18.4492 37.2686 18.8086C36.6507 19.1641 35.9523 19.3594 35.2388 19.3711C34.5253 19.3867 33.8201 19.2188 33.189 18.8828L31.0015 22.6797C31.6062 23.0586 32.1046 23.5859 32.4502 24.2109C32.7957 24.832 32.9769 25.5352 32.9769 26.25C32.9769 26.9648 32.7957 27.668 32.4502 28.2891C32.1046 28.9141 31.6062 29.4414 31.0015 29.8203L33.189 33.6172C33.8201 33.2812 34.5253 33.1133 35.2388 33.1289C35.9523 33.1406 36.6507 33.3359 37.2686 33.6914C37.8866 34.0508 38.404 34.5586 38.7724 35.168C39.1408 35.7812 39.3482 36.4727 39.3752 37.1875Z" fill="#FFFFFF" fill-opacity="1.000000" fill-rule="nonzero"/>
		<path id="Vector" d="M41.5625 30.625C40.6972 30.625 39.8513 30.3672 39.1319 29.8867C38.4124 29.4062 37.8517 28.7227 37.5205 27.9258C37.1894 27.125 37.1028 26.2461 37.2716 25.3945C37.4404 24.5469 37.8571 23.7695 38.4689 23.1562C39.0808 22.543 39.8603 22.1289 40.709 21.9609C41.5576 21.7891 42.4373 21.875 43.2368 22.207C44.0362 22.5391 44.7195 23.1016 45.2002 23.8203C45.6809 24.5391 45.9375 25.3828 45.9375 26.25C45.9375 27.4102 45.4766 28.5234 44.6561 29.3438C43.8356 30.1641 42.7228 30.625 41.5625 30.625Z" fill="#FFFFFF" fill-opacity="1.000000" fill-rule="nonzero"/>
	</g>
</svg>
