<svg width="35.000000" height="35.000000" viewBox="0 0 35 35" fill="none" xmlns="http://www.w3.org/2000/svg" xmlns:xlink="http://www.w3.org/1999/xlink">
	<desc>
			Created with Pixso.
	</desc>
	<defs/>
	<path id="Vector" d="M3.5 10.5L4 10.5C5.92499 10.5 7.5 12.0742 7.5 14L7.5 31.5C7.5 33.4258 5.92499 35 4 35L3.5 35C1.57501 35 0 33.4258 0 31.5L0 14C0 12.0742 1.57501 10.5 3.5 10.5ZM17.5 0C19.425 0 21 1.57422 21 3.5L21 31.5C21 33.4258 19.425 35 17.5 35C15.575 35 14 33.4258 14 31.5L14 3.5C14 1.57422 15.575 0 17.5 0ZM31.5 20C33.425 20 35 21.5742 35 23.5L35 31.5C35 33.4258 33.425 35 31.5 35C29.575 35 28 33.4258 28 31.5L28 23.5C28 21.5742 29.575 20 31.5 20Z" fill="#FFE8CE" fill-opacity="1.000000" fill-rule="nonzero"/>
</svg>
