<svg width="32.000000" height="32.000000" viewBox="0 0 32 32" fill="none" xmlns="http://www.w3.org/2000/svg" xmlns:xlink="http://www.w3.org/1999/xlink">
	<desc>
			Created with Pixso.
	</desc>
	<defs/>
	<path id="Vector" d="M16 0C7.16345 0 0 7.16406 0 16C0 24.8359 7.16345 32 16 32C24.8365 32 32 24.8359 32 16C32 7.16406 24.8365 0 16 0ZM17.6677 16.7031L17.6677 25.4062L14.066 25.4062L14.066 16.7031L12.2667 16.7031L12.2667 13.7031L14.066 13.7031L14.066 11.9023C14.066 9.45703 15.082 8 17.9688 8L20.3721 8L20.3721 11L18.8699 11C17.7461 11 17.6718 11.418 17.6718 12.2031L17.6677 13.7031L20.389 13.7031L20.0706 16.7031L17.6677 16.7031Z" fill="#FFFFFF" fill-opacity="1.000000" fill-rule="evenodd"/>
</svg>
