<svg width="35.000580" height="35.000000" viewBox="0 0 35.0006 35" fill="none" xmlns="http://www.w3.org/2000/svg" xmlns:xlink="http://www.w3.org/1999/xlink">
	<desc>
			Created with Pixso.
	</desc>
	<defs/>
	<path id="Vector" d="M8.75 17.5C7.01941 17.5 5.3277 18.0117 3.88879 18.9766C2.44983 19.9375 1.32831 21.3008 0.666077 22.9023C0.00378418 24.5 -0.169495 26.2578 0.168152 27.957C0.505737 29.6562 1.33911 31.2148 2.56281 32.4375C3.7865 33.6602 5.34564 34.4961 7.04297 34.832C8.7403 35.168 10.4996 34.9961 12.0985 34.3359C13.6973 33.6719 15.0639 32.5508 16.0254 31.1094C16.9868 29.6719 17.5 27.9805 17.5 26.25C17.5 23.9297 16.5781 21.7031 14.9372 20.0625C13.2963 18.4219 11.0707 17.5 8.75 17.5ZM34.6582 13.75L27.3486 1.25C27.1232 0.871094 26.8026 0.554688 26.4182 0.335938C26.0338 0.117188 25.5988 0 25.1562 0C24.7137 0 24.2788 0.117188 23.8943 0.335938C23.5099 0.554688 23.1893 0.871094 22.964 1.25L15.6543 13.75C14.6808 15.418 15.899 17.5 17.848 17.5L32.4645 17.5C34.4135 17.5 35.6317 15.418 34.6582 13.75ZM32.8125 19.6875L21.875 19.6875C21.2949 19.6875 20.7385 19.918 20.3282 20.3281C19.918 20.7383 19.6875 21.293 19.6875 21.875L19.6875 32.8125C19.6875 33.3945 19.918 33.9492 20.3282 34.3594C20.7385 34.7695 21.2949 35 21.875 35L32.8125 35C33.3927 35 33.9491 34.7695 34.3593 34.3594C34.7695 33.9492 35 33.3945 35 32.8125L35 21.875C35 21.293 34.7695 20.7383 34.3593 20.3281C33.9491 19.918 33.3927 19.6875 32.8125 19.6875Z" fill="#F5FFC0" fill-opacity="1.000000" fill-rule="nonzero"/>
</svg>
