<svg width="29.166687" height="29.167969" viewBox="0 0 29.1667 29.168" fill="none" xmlns="http://www.w3.org/2000/svg" xmlns:xlink="http://www.w3.org/1999/xlink">
	<desc>
			Created with Pixso.
	</desc>
	<defs/>
	<path id="Vector" d="M19.6875 0L14.2188 0C13.6147 0 13.125 0.488281 13.125 1.09375L13.125 5.9375C8.17792 6.64453 4.375 10.8984 4.375 16.043L3.28125 16.043C1.46906 16.043 0 17.5117 0 19.3242L0 28.0742C0 28.6758 0.489685 29.168 1.09375 29.168L11.6667 29.168C11.868 29.168 12.0312 29.0039 12.0312 28.8008L12.0312 24.4258C12.0312 24.0234 12.3578 23.6992 12.7604 23.6992L16.4062 23.6992C16.8089 23.6992 17.1354 24.0234 17.1354 24.4258L17.1354 28.8008C17.1354 29.0039 17.2986 29.168 17.5 29.168L28.0729 29.168C28.6769 29.168 29.1667 28.6758 29.1667 28.0742L29.1667 19.3242C29.1667 17.5117 27.6976 16.043 25.8854 16.043L24.7917 16.043C24.7917 10.6484 20.61 6.23438 15.3125 5.85938L15.3125 4.375L19.6875 4.375C20.0901 4.375 20.4167 4.04688 20.4167 3.64453L20.4167 0.730469C20.4167 0.328125 20.0901 0 19.6875 0ZM19.6875 14.2188L19.6875 17.1367C19.6875 17.7383 19.1978 18.2305 18.5938 18.2305C17.9897 18.2305 17.5 17.7383 17.5 17.1367L17.5 14.2188C17.5 13.6133 17.9897 13.125 18.5938 13.125C19.1978 13.125 19.6875 13.6133 19.6875 14.2188ZM14.2188 13.125C14.8228 13.125 15.3125 13.6133 15.3125 14.2188L15.3125 17.1367C15.3125 17.7383 14.8228 18.2305 14.2188 18.2305C13.6147 18.2305 13.125 17.7383 13.125 17.1367L13.125 14.2188C13.125 13.6133 13.6147 13.125 14.2188 13.125ZM10.9375 14.2188L10.9375 17.1367C10.9375 17.7383 10.4478 18.2305 9.84375 18.2305C9.23969 18.2305 8.75 17.7383 8.75 17.1367L8.75 14.2188C8.75 13.6133 9.23969 13.125 9.84375 13.125C10.4478 13.125 10.9375 13.6133 10.9375 14.2188ZM5.46875 19.6875C6.07281 19.6875 6.5625 20.1758 6.5625 20.7812L6.5625 24.4258C6.5625 25.0312 6.07281 25.5195 5.46875 25.5195C4.86469 25.5195 4.375 25.0312 4.375 24.4258L4.375 20.7812C4.375 20.1758 4.86469 19.6875 5.46875 19.6875ZM24.7917 20.7812L24.7917 24.4258C24.7917 25.0312 24.3019 25.5195 23.6979 25.5195C23.0939 25.5195 22.6042 25.0312 22.6042 24.4258L22.6042 20.7812C22.6042 20.1758 23.0939 19.6875 23.6979 19.6875C24.3019 19.6875 24.7917 20.1758 24.7917 20.7812Z" fill="#CC9DFF" fill-opacity="1.000000" fill-rule="nonzero"/>
</svg>
