<svg width="32.000000" height="32.000000" viewBox="0 0 32 32" fill="none" xmlns="http://www.w3.org/2000/svg" xmlns:xlink="http://www.w3.org/1999/xlink">
	<desc>
			Created with Pixso.
	</desc>
	<defs/>
	<path id="Vector" d="M0 16C0 7.16406 7.16345 0 16 0C24.8365 0 32 7.16406 32 16C32 24.8359 24.8365 32 16 32C7.16345 32 0 24.8359 0 16ZM13.072 15.543L13.072 17.2812L15.9551 17.2812C15.839 18.0273 15.0836 19.4648 13.072 19.4648C11.3363 19.4648 9.92017 18.0312 9.92017 16.2656C9.92017 14.5 11.3363 13.0664 13.072 13.0664C14.0597 13.0664 14.7206 13.4883 15.0981 13.8477L16.478 12.5234C15.592 11.6992 14.4446 11.1992 13.072 11.1992C10.2615 11.1992 7.98853 13.4648 7.98853 16.2656C7.98853 19.0664 10.2615 21.332 13.072 21.332C16.006 21.332 17.9523 19.2773 17.9523 16.3828C17.9523 16.0508 17.9159 15.7969 17.8723 15.543L13.072 15.543ZM22.5129 15.543L23.9655 15.543L23.9655 16.9922L22.5129 16.9922L22.5129 18.4375L21.0604 18.4375L21.0604 16.9922L19.608 16.9922L19.608 15.543L21.0604 15.543L21.0604 14.0938L22.5129 14.0938L22.5129 15.543Z" fill="#FFFFFF" fill-opacity="1.000000" fill-rule="evenodd"/>
</svg>
