<svg width="13.991089" height="13.988281" viewBox="0 0 13.9911 13.9883" fill="none" xmlns="http://www.w3.org/2000/svg" xmlns:xlink="http://www.w3.org/1999/xlink">
	<desc>
			Created with Pixso.
	</desc>
	<defs/>
	<path id="Vector" d="M6.2301 0.00390625C6.37878 0 6.5387 0.00390625 6.71118 0.00390625L6.99573 0.00390625C9.27405 0.00390625 9.54419 0.0117188 10.4438 0.0507812C11.2759 0.0898438 11.7274 0.226562 12.0282 0.34375C12.4265 0.5 12.7103 0.683594 13.0089 0.984375C13.3075 1.28125 13.4924 1.56641 13.6475 1.96484C13.7643 2.26562 13.9034 2.71484 13.9413 3.54688C13.9822 4.44922 13.9911 4.71875 13.9911 6.99609C13.9911 9.27344 13.9822 9.54297 13.9413 10.4414C13.9033 11.2734 13.7643 11.7266 13.6475 12.0273C13.4928 12.4258 13.3075 12.707 13.0089 13.0078C12.7102 13.3047 12.4266 13.4922 12.0282 13.6445C11.7278 13.7617 11.2759 13.9023 10.4438 13.9414C9.54431 13.9805 9.27405 13.9883 6.99573 13.9883C4.71704 13.9883 4.44702 13.9805 3.54736 13.9414C2.71545 13.9023 2.26392 13.7617 1.96289 13.6445C1.5647 13.4922 1.28015 13.3047 0.981567 13.0078C0.682861 12.707 0.498047 12.4258 0.342896 12.0273C0.226074 11.7266 0.0869141 11.2734 0.0490723 10.4414C0.00817871 9.54297 0 9.27344 0 6.99219C0 4.71484 0.00817871 4.44531 0.0490723 3.54688C0.0871582 2.71484 0.226074 2.26172 0.342896 1.96094C0.497559 1.5625 0.682861 1.28125 0.981567 0.980469C1.28015 0.683594 1.5647 0.496094 1.96289 0.34375C2.26367 0.226562 2.71545 0.0859375 3.54736 0.046875C4.33459 0.0117188 4.63977 0 6.2301 0L6.2301 0.00390625ZM11.5508 1.41797C10.9854 1.41797 10.5266 1.87891 10.5266 2.44141C10.5266 3.00781 10.9854 3.46484 11.5508 3.46484C12.1161 3.46484 12.5747 3.00781 12.5747 2.44141C12.5747 1.87891 12.1161 1.41797 11.5508 1.41797L11.5508 1.41797ZM2.6134 6.99609C2.6134 4.57812 4.57544 2.61719 6.99548 2.61719C9.41565 2.61719 11.3772 4.57812 11.3772 6.99609C11.3772 9.41797 9.41577 11.3789 6.99573 11.3789C4.57556 11.3789 2.6134 9.41797 2.6134 6.99609Z" fill="#FFFFFF" fill-opacity="1.000000" fill-rule="evenodd"/>
</svg>
