<svg width="36.000000" height="36.000000" viewBox="0 0 36 36" fill="none" xmlns="http://www.w3.org/2000/svg" xmlns:xlink="http://www.w3.org/1999/xlink">
	<desc>
			Created with Pixso.
	</desc>
	<defs/>
	<path id="Subtract" d="M9.1748 10.0781C6.61047 11.25 1.21484 12.4414 0.146118 7.80078C-0.922607 3.16406 4.13367 1.14062 6.79553 0.707031C12.4829 0.0507812 24.7075 -1.32031 31.5343 3.33594C32.1088 3.78125 32.9586 4.57422 33.6636 5.60547C37.5959 12.0352 35.5874 23.6914 34.6266 29.2695L34.5718 29.5859C33.9943 32.1953 31.6772 37.0859 27.0297 35.7852C22.3821 34.4844 23.8701 29.2148 25.1951 26.7422C26.4181 24.4023 27.5356 18.7109 26.8258 18.0039C26.52 17.6992 24.7874 16.0703 19.0798 25.3203C14.8484 32.1719 9.70642 30.5977 7.19116 28.6328L6.60999 28.0625C4.62781 25.6406 2.78455 20.1641 10.2896 16.1641C19.9186 11.0312 18.369 9.24219 18.0774 8.92578C17.4006 8.19141 11.5969 8.99609 9.1748 10.0781Z" fill="#883CDA" fill-opacity="1.000000" fill-rule="evenodd"/>
</svg>
