<svg width="70.000000" height="70.000000" viewBox="0 0 70 70" fill="none" xmlns="http://www.w3.org/2000/svg" xmlns:xlink="http://www.w3.org/1999/xlink">
	<desc>
			Created with Pixso.
	</desc>
	<defs>
		<clipPath id="clip318_7359">
			<rect id="392507_edit_editor_pen_pencil_write_icon 1" width="70.000000" height="70.000000" fill="white" fill-opacity="0"/>
		</clipPath>
	</defs>
	<g clip-path="url(#clip318_7359)">
		<path id="Vector" d="M1419.69 301.875L1476.56 301.875L1476.56 341.25L1445.94 341.25" stroke="#FFFFFF" stroke-opacity="1.000000" stroke-width="2.000000" stroke-linejoin="round" stroke-linecap="round"/>
		<path id="Vector" d="M1428.44 341.25L1419.69 341.25L1419.69 310.625" stroke="#FFFFFF" stroke-opacity="1.000000" stroke-width="2.000000" stroke-linejoin="round" stroke-linecap="round"/>
		<path id="Vector" d="M1445.94 341.25L1428.44 354.375L1428.44 341.25" stroke="#FFFFFF" stroke-opacity="1.000000" stroke-width="2.000000" stroke-linejoin="round" stroke-linecap="round"/>
		<path id="Vector" d="M61.6262 8.37109C59.5175 6.26172 56.8444 4.92578 53.8978 4.50391C49.6082 3.89844 45.3775 5.30859 42.3172 8.37109C41.4619 9.22656 41.4619 10.6094 42.3172 11.4648C42.3631 11.5117 42.4222 11.5273 42.4703 11.5664C42.5097 11.6133 42.525 11.6719 42.5709 11.7188L48.8797 18.0273L16.2947 50.6133L11.2787 45.5977L38.9222 17.9531C39.7775 17.0977 39.7775 15.7148 38.9222 14.8594C38.0669 14.0039 36.6844 14.0039 35.829 14.8594L6.64343 44.043C6.64124 44.0469 6.63904 44.0469 6.6369 44.0508L5.01373 45.6719C4.80811 45.8789 4.64844 46.1211 4.53906 46.3867C4.43188 46.6562 4.375 46.9375 4.375 47.2188L4.375 63.4336C4.375 64.6445 5.35498 65.6211 6.5625 65.6211L22.7806 65.6211C23.3603 65.6211 23.9182 65.3945 24.3272 64.9805L61.6262 27.6836C66.9484 22.3594 66.9484 13.6953 61.6262 8.37109ZM53.2831 8.83984C55.2825 9.125 57.0981 10.0312 58.5309 11.4648C61.6132 14.5469 62.0441 19.2656 59.8741 22.8359L53.5172 16.4766L47.1384 10.0977C48.9562 8.98438 51.1066 8.53125 53.2831 8.83984ZM8.75 61.2461L8.75 49.2539L14.7438 55.25C14.7459 55.25 14.7459 55.2539 14.7459 55.2539L14.7503 55.2539L20.7419 61.2461L8.75 61.2461ZM19.3878 53.7031L51.9706 21.1211L56.9866 26.1367L24.4016 58.7227L19.3878 53.7031Z" fill="#FFFFFF" fill-opacity="1.000000" fill-rule="nonzero"/>
	</g>
</svg>
