<svg width="168.000000" height="288.000000" viewBox="0 0 168 288" fill="none" xmlns="http://www.w3.org/2000/svg" xmlns:xlink="http://www.w3.org/1999/xlink">
	<desc>
			Created with Pixso.
	</desc>
	<defs>
		<clipPath id="clip318_15672">
			<rect id="add element" width="168.000000" height="288.000000" fill="white" fill-opacity="0"/>
		</clipPath>
	</defs>
	<g clip-path="url(#clip318_15672)">
		<circle id="Ellipse 28" cx="4.000000" cy="4.000000" r="4.000000" fill="#5AC4FF" fill-opacity="1.000000"/>
		<circle id="Ellipse 52" cx="4.000000" cy="164.000000" r="4.000000" fill="#5AC4FF" fill-opacity="1.000000"/>
		<circle id="Ellipse 40" cx="4.000000" cy="84.000000" r="4.000000" fill="#5AC4FF" fill-opacity="1.000000"/>
		<circle id="Ellipse 53" cx="4.000000" cy="244.000000" r="4.000000" fill="#5AC4FF" fill-opacity="1.000000"/>
		<circle id="Ellipse 34" cx="124.000000" cy="4.000000" r="4.000000" fill="#5AC4FF" fill-opacity="1.000000"/>
		<circle id="Ellipse 54" cx="124.000000" cy="164.000000" r="4.000000" fill="#5AC4FF" fill-opacity="1.000000"/>
		<circle id="Ellipse 41" cx="124.000000" cy="84.000000" r="4.000000" fill="#5AC4FF" fill-opacity="1.000000"/>
		<circle id="Ellipse 55" cx="124.000000" cy="244.000000" r="4.000000" fill="#5AC4FF" fill-opacity="1.000000"/>
		<circle id="Ellipse 31" cx="4.000000" cy="44.000000" r="4.000000" fill="#5AC4FF" fill-opacity="1.000000"/>
		<circle id="Ellipse 56" cx="4.000000" cy="204.000000" r="4.000000" fill="#5AC4FF" fill-opacity="1.000000"/>
		<circle id="Ellipse 42" cx="4.000000" cy="124.000000" r="4.000000" fill="#5AC4FF" fill-opacity="1.000000"/>
		<circle id="Ellipse 57" cx="4.000000" cy="284.000000" r="4.000000" fill="#5AC4FF" fill-opacity="1.000000"/>
		<circle id="Ellipse 35" cx="124.000000" cy="44.000000" r="4.000000" fill="#5AC4FF" fill-opacity="1.000000"/>
		<circle id="Ellipse 58" cx="124.000000" cy="204.000000" r="4.000000" fill="#5AC4FF" fill-opacity="1.000000"/>
		<circle id="Ellipse 43" cx="124.000000" cy="124.000000" r="4.000000" fill="#5AC4FF" fill-opacity="1.000000"/>
		<circle id="Ellipse 59" cx="124.000000" cy="284.000000" r="4.000000" fill="#5AC4FF" fill-opacity="1.000000"/>
		<circle id="Ellipse 29" cx="44.000000" cy="4.000000" r="4.000000" fill="#5AC4FF" fill-opacity="1.000000"/>
		<circle id="Ellipse 60" cx="44.000000" cy="164.000000" r="4.000000" fill="#5AC4FF" fill-opacity="1.000000"/>
		<circle id="Ellipse 44" cx="44.000000" cy="84.000000" r="4.000000" fill="#5AC4FF" fill-opacity="1.000000"/>
		<circle id="Ellipse 61" cx="44.000000" cy="244.000000" r="4.000000" fill="#5AC4FF" fill-opacity="1.000000"/>
		<circle id="Ellipse 36" cx="164.000000" cy="4.000000" r="4.000000" fill="#5AC4FF" fill-opacity="1.000000"/>
		<circle id="Ellipse 62" cx="164.000000" cy="164.000000" r="4.000000" fill="#5AC4FF" fill-opacity="1.000000"/>
		<circle id="Ellipse 45" cx="164.000000" cy="84.000000" r="4.000000" fill="#5AC4FF" fill-opacity="1.000000"/>
		<circle id="Ellipse 63" cx="164.000000" cy="244.000000" r="4.000000" fill="#5AC4FF" fill-opacity="1.000000"/>
		<circle id="Ellipse 32" cx="44.000000" cy="44.000000" r="4.000000" fill="#5AC4FF" fill-opacity="1.000000"/>
		<circle id="Ellipse 64" cx="44.000000" cy="204.000000" r="4.000000" fill="#5AC4FF" fill-opacity="1.000000"/>
		<circle id="Ellipse 46" cx="44.000000" cy="124.000000" r="4.000000" fill="#5AC4FF" fill-opacity="1.000000"/>
		<circle id="Ellipse 65" cx="44.000000" cy="284.000000" r="4.000000" fill="#5AC4FF" fill-opacity="1.000000"/>
		<circle id="Ellipse 37" cx="164.000000" cy="44.000000" r="4.000000" fill="#5AC4FF" fill-opacity="1.000000"/>
		<circle id="Ellipse 66" cx="164.000000" cy="204.000000" r="4.000000" fill="#5AC4FF" fill-opacity="1.000000"/>
		<circle id="Ellipse 47" cx="164.000000" cy="124.000000" r="4.000000" fill="#5AC4FF" fill-opacity="1.000000"/>
		<circle id="Ellipse 67" cx="164.000000" cy="284.000000" r="4.000000" fill="#5AC4FF" fill-opacity="1.000000"/>
		<circle id="Ellipse 30" cx="84.000000" cy="4.000000" r="4.000000" fill="#5AC4FF" fill-opacity="1.000000"/>
		<circle id="Ellipse 68" cx="84.000000" cy="164.000000" r="4.000000" fill="#5AC4FF" fill-opacity="1.000000"/>
		<circle id="Ellipse 48" cx="84.000000" cy="84.000000" r="4.000000" fill="#5AC4FF" fill-opacity="1.000000"/>
		<circle id="Ellipse 69" cx="84.000000" cy="244.000000" r="4.000000" fill="#5AC4FF" fill-opacity="1.000000"/>
		<circle id="Ellipse 33" cx="84.000000" cy="44.000000" r="4.000000" fill="#5AC4FF" fill-opacity="1.000000"/>
		<circle id="Ellipse 72" cx="84.000000" cy="204.000000" r="4.000000" fill="#5AC4FF" fill-opacity="1.000000"/>
		<circle id="Ellipse 50" cx="84.000000" cy="124.000000" r="4.000000" fill="#5AC4FF" fill-opacity="1.000000"/>
		<circle id="Ellipse 73" cx="84.000000" cy="284.000000" r="4.000000" fill="#5AC4FF" fill-opacity="1.000000"/>
	</g>
</svg>
