<svg width="35.000000" height="35.000000" viewBox="0 0 35 35" fill="none" xmlns="http://www.w3.org/2000/svg" xmlns:xlink="http://www.w3.org/1999/xlink">
	<desc>
			Created with Pixso.
	</desc>
	<defs/>
	<path id="Vector" d="M24.9531 21.918L17.5 28.4375L10.0469 21.918C4.46094 22.1289 0 26.1289 0 31.0625L0 31.7188C0 33.5312 1.67969 35 3.75 35L31.25 35C33.3203 35 35 33.5312 35 31.7188L35 31.0625C35 26.1289 30.5391 22.1289 24.9531 21.918ZM1.0625 5.45703L1.5625 5.55859L1.5625 9.55078C1.01562 9.83984 0.625 10.3359 0.625 10.9375C0.625 11.5117 0.984375 11.9922 1.49219 12.2852L0.273438 16.543C0.140625 17.0156 0.4375 17.5 0.867188 17.5L4.13281 17.5C4.5625 17.5 4.85938 17.0156 4.72656 16.543L3.50781 12.2852C4.01562 11.9922 4.375 11.5117 4.375 10.9375C4.375 10.3359 3.98438 9.83984 3.4375 9.55078L3.4375 5.95703L8.59375 7.04297C7.92188 8.21875 7.5 9.53125 7.5 10.9375C7.5 15.7734 11.9766 19.6875 17.5 19.6875C23.0234 19.6875 27.5 15.7734 27.5 10.9375C27.5 9.53125 27.0859 8.21875 26.4062 7.04297L33.9297 5.45703C35.3516 5.15625 35.3516 3.60547 33.9297 3.30469L19.0547 0.160156C18.0391 -0.0546875 16.9688 -0.0546875 15.9531 0.160156L1.0625 3.29688C-0.351562 3.59766 -0.351562 5.15625 1.0625 5.45703Z" fill="#ACFFD7" fill-opacity="1.000000" fill-rule="nonzero"/>
</svg>
