<svg width="77.000000" height="77.000000" viewBox="0 0 77 77" fill="none" xmlns="http://www.w3.org/2000/svg" xmlns:xlink="http://www.w3.org/1999/xlink">
	<desc>
			Created with Pixso.
	</desc>
	<defs>
		<clipPath id="clip318_7365">
			<rect id="7218105_chat_communication_message_talk_chatting_icon 1" width="77.000000" height="77.000000" fill="white" fill-opacity="0"/>
		</clipPath>
	</defs>
	<g clip-path="url(#clip318_7365)">
		<path id="Vector" d="M49.2772 22.7891L67.6901 22.7891C72.3037 22.7891 76.0715 26.5586 76.0715 31.1719L76.0715 48.2031C76.0715 52.8164 72.3037 56.5859 67.6901 56.5859L64.4869 56.5859L59.2375 69.3516C58.5973 70.9102 56.4019 70.8789 55.7744 69.3516L50.525 56.5859L36.1046 56.5859C31.491 56.5859 27.724 52.8164 27.724 48.2031L27.724 40.2852L26.4753 40.2852L21.226 53.0547C20.5984 54.5781 18.403 54.6133 17.7637 53.0547L12.5143 40.2852L9.3103 40.2852C4.69653 40.2852 0.928711 36.5195 0.928711 31.9062L0.928711 14.8711C0.928711 10.2617 4.69653 6.49219 9.3103 6.49219L40.8956 6.49219C45.5093 6.49219 49.2772 10.2578 49.2772 14.8711L49.2772 22.7891ZM9.23389 21.9883C6.76379 21.9883 6.76379 18.2305 9.23389 18.2305L40.972 18.2305C43.4421 18.2305 43.4421 21.9883 40.972 21.9883L9.23389 21.9883ZM31.4801 40.2852L31.4801 48.2031C31.4801 50.7422 33.5654 52.8281 36.1046 52.8281L51.7773 52.832C52.5131 52.8359 53.2115 53.2695 53.5089 53.9922L57.506 63.7188L61.4438 54.1406C61.684 53.3789 62.3951 52.8281 63.2346 52.8281L67.6901 52.8281C70.2301 52.8281 72.3147 50.7422 72.3147 48.2031L72.3147 31.1719C72.3147 28.6328 70.2292 26.5469 67.6901 26.5469L49.2772 26.5469L49.2772 31.9062C49.2772 36.5195 45.5093 40.2852 40.8956 40.2852L31.4801 40.2852ZM40.8956 10.25L9.3103 10.25C6.771 10.25 4.68567 12.332 4.68567 14.8711L4.68567 31.9062C4.68567 34.4453 6.771 36.5312 9.3103 36.5312L13.7656 36.5312C14.6051 36.5312 15.3163 37.082 15.5573 37.8398L19.4944 47.418L23.4923 37.6953C23.7888 36.9727 24.4873 36.5352 25.223 36.5352L40.8956 36.5312C43.4358 36.5312 45.5203 34.4453 45.5203 31.9062L45.5203 14.8711C45.5203 12.332 43.4358 10.25 40.8956 10.25Z" fill="#FFFFFF" fill-opacity="1.000000" fill-rule="nonzero"/>
	</g>
</svg>
