<svg width="32.000000" height="32.000000" viewBox="0 0 32 32" fill="none" xmlns="http://www.w3.org/2000/svg" xmlns:xlink="http://www.w3.org/1999/xlink">
	<desc>
			Created with Pixso.
	</desc>
	<defs/>
	<path id="Vector" d="M0 16C0 24.8359 7.16345 32 16 32C24.8365 32 32 24.8359 32 16C32 7.16406 24.8365 0 16 0C7.16345 0 0 7.16406 0 16ZM13.0667 23.332L13.3389 19.2539L13.3386 19.2539L20.7579 12.5586C21.0835 12.2695 20.6869 12.1289 20.2546 12.3906L11.0981 18.168L7.14319 16.9336C6.28894 16.6719 6.28284 16.0859 7.33484 15.6641L22.7468 9.71875C23.4508 9.40234 24.1302 9.89062 23.8615 10.9688L21.2368 23.3359C21.0536 24.2148 20.5225 24.4258 19.7866 24.0195L15.7885 21.0664L13.8667 22.9336C13.8606 22.9375 13.8546 22.9453 13.8486 22.9492C13.6337 23.1602 13.4558 23.332 13.0667 23.332Z" fill="#FFFFFF" fill-opacity="1.000000" fill-rule="evenodd"/>
</svg>
