<svg width="217.000000" height="37.000000" viewBox="0 0 217 37" fill="none" xmlns="http://www.w3.org/2000/svg" xmlns:xlink="http://www.w3.org/1999/xlink">
	<desc>
			Created with Pixso.
	</desc>
	<defs/>
	<path id="EV School" d="M133.69 13.6C135.52 11.41 137.83 10.32 140.6 10.32C146.21 10.32 149.05 13.56 149.13 20.04L149.13 36.52L142.22 36.52L142.22 20.23C142.22 18.76 141.91 17.67 141.27 16.97C140.63 16.26 139.57 15.9 138.09 15.9Q136.21 15.9 134.98 16.79Q134.21 17.34 133.69 18.23L133.69 36.52L126.78 36.52L126.78 0L133.69 0L133.69 13.6ZM217 36.52L210.06 36.52L210.06 0L217 0L217 36.52ZM89.8 27.44C89.8 26.09 89.32 25.06 88.37 24.35C87.41 23.62 85.69 22.85 83.2 22.06C80.72 21.25 78.75 20.46 77.3 19.68Q73.14 17.45 71.9 14.12Q71.37 12.71 71.37 11.1Q71.37 9.41 71.95 7.94Q72.33 6.97 72.95 6.1C74.02 4.63 75.54 3.48 77.52 2.66Q80.5 1.42 84.21 1.42C86.69 1.42 88.91 1.87 90.85 2.78C92.8 3.66 94.3 4.92 95.37 6.56C96.46 8.19 97 10.05 97 12.12L89.83 12.12Q89.83 10.35 88.99 9.17L88.99 9.17Q88.7 8.77 88.32 8.44Q86.81 7.1 84.09 7.1C82.34 7.1 80.97 7.48 80 8.22C79.03 8.95 78.54 9.92 78.54 11.12C78.54 12.25 79.11 13.19 80.24 13.95C81.39 14.71 83.07 15.43 85.28 16.09C89.36 17.32 92.34 18.83 94.2 20.64Q95.43 21.83 96.12 23.27Q97 25.12 97 27.39Q97 29.92 95.92 31.83Q95.08 33.33 93.58 34.45C91.3 36.15 88.23 37 84.38 37Q80.36 37 77.06 35.55C74.86 34.56 73.18 33.22 72.02 31.53C70.87 29.83 70.3 27.86 70.3 25.63L77.49 25.63C77.49 29.45 79.79 31.36 84.38 31.36C86.08 31.36 87.41 31.02 88.37 30.34C89.32 29.64 89.8 28.67 89.8 27.44ZM20.93 21.51L7.17 21.51L7.17 30.79L23.33 30.79L23.33 36.52L0 36.52L0 1.9L23.28 1.9L23.28 7.67L7.17 7.67L7.17 15.93L20.93 15.93L20.93 21.51ZM40.39 27.94L48.28 1.9L56.26 1.9L44.15 36.52L36.66 36.52L24.59 1.9L32.55 1.9L40.39 27.94ZM112.18 31.46C113.45 31.46 114.49 31.1 115.28 30.41C116.08 29.71 116.5 28.78 116.53 27.63L123.01 27.63C122.99 29.37 122.51 30.97 121.57 32.43C120.63 33.87 119.34 35 117.7 35.81C116.07 36.6 114.27 37 112.3 37C108.6 37 105.68 35.83 103.55 33.5C101.41 31.16 100.34 27.92 100.34 23.8L100.34 23.35C100.34 19.38 101.4 16.22 103.52 13.86C105.64 11.5 108.55 10.32 112.25 10.32C115.48 10.32 118.07 11.23 120.02 13.07C121.98 14.9 122.97 17.33 123.01 20.37L116.53 20.37C116.5 19.04 116.08 17.96 115.28 17.14C114.49 16.3 113.44 15.88 112.13 15.88Q110.6 15.88 109.54 16.58Q108.93 16.99 108.47 17.64C107.66 18.8 107.25 20.68 107.25 23.3L107.25 24.01C107.25 26.66 107.66 28.56 108.47 29.72C109.28 30.88 110.52 31.46 112.18 31.46ZM153.27 23.42C153.27 20.87 153.76 18.59 154.75 16.59Q155.66 14.76 157.05 13.43Q157.93 12.59 159 11.96C160.87 10.86 163.03 10.32 165.48 10.32C168.97 10.32 171.82 11.38 174.02 13.5C176.23 15.62 177.47 18.51 177.72 22.16L177.77 23.92Q177.77 28.88 175.44 32.2L175.44 32.2Q174.99 32.85 174.45 33.43Q173.48 34.46 172.33 35.19Q169.5 37 165.53 37C161.8 37 158.82 35.81 156.59 33.43C154.38 31.05 153.27 27.82 153.27 23.73L153.27 23.42ZM180.95 23.42C180.95 20.87 181.44 18.59 182.43 16.59C183.42 14.6 184.84 13.05 186.69 11.96C188.55 10.86 190.71 10.32 193.16 10.32C196.65 10.32 199.5 11.38 201.7 13.5C203.91 15.62 205.15 18.51 205.4 22.16L205.45 23.92C205.45 27.86 204.34 31.03 202.13 33.43Q201.17 34.46 200.01 35.19Q197.18 37 193.21 37Q189.26 37 186.42 35.21Q185.25 34.47 184.27 33.43C182.06 31.05 180.95 27.82 180.95 23.73L180.95 23.42ZM160.17 23.92Q160.17 27.58 161.56 29.53C162.49 30.81 163.81 31.46 165.53 31.46C167.2 31.46 168.51 30.82 169.45 29.55C170.39 28.27 170.86 26.22 170.86 23.42C170.86 21.02 170.39 19.17 169.45 17.85Q168.83 16.99 168 16.51Q166.92 15.88 165.48 15.88C163.79 15.88 162.49 16.54 161.56 17.85Q160.17 19.8 160.17 23.92ZM187.86 23.92C187.86 26.36 188.32 28.23 189.24 29.53C190.17 30.81 191.49 31.46 193.21 31.46C194.88 31.46 196.19 30.82 197.13 29.55C198.07 28.27 198.54 26.22 198.54 23.42C198.54 21.02 198.07 19.17 197.13 17.85C196.19 16.54 194.87 15.88 193.16 15.88C191.47 15.88 190.17 16.54 189.24 17.85C188.32 19.15 187.86 21.17 187.86 23.92Z" fill="#FFFFFF" fill-opacity="1.000000" fill-rule="evenodd"/>
</svg>
