<svg width="15.000000" height="16.000000" viewBox="0 0 15 16" fill="none" xmlns="http://www.w3.org/2000/svg" xmlns:xlink="http://www.w3.org/1999/xlink">
	<desc>
			Created with Pixso.
	</desc>
	<defs/>
	<path id="Vector" d="M0.567383 15.5078L3.40601 14.7109L3.67981 14.8867C4.8313 15.6133 6.15125 16 7.49707 16L7.50012 16C11.6339 16 14.9983 12.4141 15 8.00391C15.0009 5.86719 14.2214 3.85547 12.8054 2.34375C11.3894 0.832031 9.50635 0 7.50317 0C3.36609 0 0.00158691 3.58594 0 7.99609C-0.000610352 9.50781 0.395996 10.9805 1.14673 12.2539L1.32507 12.5547L0.567383 15.5078ZM11.7373 10.0742C11.8945 10.1562 12.0007 10.2109 12.0461 10.293C12.1024 10.3906 12.1024 10.875 11.9147 11.4336C11.7267 11.9961 10.826 12.5078 10.3927 12.5781C10.0043 12.6406 9.51282 12.668 8.97266 12.4844C8.64514 12.3711 8.22522 12.2227 7.68726 11.9766C5.57361 11.0039 4.14514 8.82031 3.87524 8.40625C3.85632 8.37891 3.84302 8.35547 3.83569 8.34766L3.83386 8.34375C3.7146 8.17578 2.91504 7.03516 2.91504 5.85938C2.91504 4.75391 3.42529 4.17188 3.66003 3.90234C3.67615 3.88672 3.69092 3.86719 3.70422 3.85547C3.91089 3.61328 4.15515 3.55469 4.30542 3.55469C4.45569 3.55469 4.6062 3.55469 4.73755 3.5625C4.75378 3.5625 4.77063 3.5625 4.78809 3.5625C4.91943 3.5625 5.08325 3.55859 5.24487 3.97266C5.30701 4.13281 5.39795 4.37109 5.4939 4.61719C5.68787 5.12109 5.90234 5.67969 5.93994 5.75781C5.99634 5.87891 6.03394 6.01953 5.95874 6.17969C5.94751 6.20312 5.93701 6.22656 5.92712 6.25C5.87073 6.37109 5.8291 6.46094 5.7334 6.58203C5.69568 6.62891 5.65674 6.67969 5.6178 6.73047C5.54028 6.83203 5.46265 6.92969 5.39514 7.00391C5.28223 7.12109 5.16467 7.25391 5.29626 7.49219C5.42773 7.73438 5.88025 8.51953 6.55054 9.16016C7.27112 9.84375 7.89734 10.1328 8.21472 10.2812C8.27661 10.3086 8.3269 10.332 8.36377 10.3516C8.58911 10.4727 8.7207 10.4531 8.85217 10.293C8.98364 10.1328 9.41577 9.58984 9.56604 9.34766C9.71631 9.10938 9.8667 9.14844 10.0734 9.23047C10.28 9.30859 11.3885 9.89062 11.614 10.0117C11.6581 10.0352 11.6992 10.0547 11.7373 10.0742Z" fill="#FFFFFF" fill-opacity="1.000000" fill-rule="evenodd"/>
</svg>
