<svg width="32.000000" height="32.000000" viewBox="0 0 32 32" fill="none" xmlns="http://www.w3.org/2000/svg" xmlns:xlink="http://www.w3.org/1999/xlink">
	<desc>
			Created with Pixso.
	</desc>
	<defs>
		<clipPath id="clip9_1183">
			<rect id="1488803311" width="32.000000" height="32.000000" fill="white" fill-opacity="0"/>
		</clipPath>
	</defs>
	<rect id="1488803311" width="32.000000" height="32.000000" fill="#FFFFFF" fill-opacity="0"/>
	<g clip-path="url(#clip9_1183)">
		<path id="Vector" d="M0 16C0 24.83 7.16 32 16 32C24.83 32 32 24.83 32 16C32 7.16 24.83 0 16 0C7.16 0 0 7.16 0 16ZM26.04 15.38C26.03 20.63 21.77 24.89 16.52 24.9L16.52 24.9C14.93 24.9 13.36 24.5 11.97 23.74L6.93 25.06L8.28 20.13C7.45 18.69 7.01 17.05 7.01 15.37C7.01 10.13 11.28 5.86 16.52 5.86C19.07 5.86 21.46 6.85 23.25 8.65C25.05 10.45 26.04 12.84 26.04 15.38Z" fill="#FFFFFF" fill-opacity="1.000000" fill-rule="evenodd"/>
		<path id="Vector" d="M9.21 22.8L12.21 22.01L12.49 22.19C13.71 22.91 15.1 23.29 16.52 23.29L16.52 23.29C20.88 23.29 24.43 19.74 24.43 15.38C24.43 13.27 23.61 11.28 22.12 9.79C20.62 8.29 18.64 7.47 16.53 7.47C12.16 7.47 8.62 11.01 8.61 15.37C8.61 16.87 9.03 18.32 9.82 19.58L10.01 19.88L9.21 22.8ZM20.99 17.43C21.16 17.51 21.27 17.57 21.32 17.64C21.37 17.75 21.37 18.22 21.18 18.78C20.98 19.33 20.03 19.83 19.57 19.91C19.16 19.97 18.64 19.99 18.08 19.81C17.73 19.7 17.29 19.55 16.72 19.31C14.49 18.35 12.98 16.19 12.7 15.78C12.68 15.75 12.67 15.73 12.66 15.72L12.66 15.72C12.53 15.55 11.69 14.42 11.69 13.26C11.69 12.17 12.23 11.59 12.47 11.33C12.49 11.31 12.51 11.29 12.52 11.28C12.74 11.04 13 10.98 13.15 10.98C13.31 10.98 13.47 10.98 13.61 10.99C13.63 10.99 13.64 10.99 13.66 10.99C13.8 10.99 13.97 10.99 14.14 11.4C14.21 11.55 14.31 11.79 14.41 12.03C14.61 12.53 14.84 13.08 14.88 13.16C14.94 13.28 14.98 13.42 14.9 13.58C14.89 13.6 14.87 13.62 14.86 13.65C14.8 13.77 14.76 13.86 14.66 13.98C14.62 14.02 14.58 14.07 14.54 14.12C14.46 14.22 14.37 14.32 14.3 14.39C14.18 14.51 14.06 14.64 14.2 14.88C14.34 15.12 14.81 15.89 15.52 16.52C16.28 17.2 16.94 17.49 17.28 17.63C17.34 17.66 17.39 17.68 17.43 17.7C17.67 17.82 17.81 17.8 17.95 17.64C18.09 17.49 18.54 16.95 18.7 16.71C18.86 16.48 19.02 16.51 19.24 16.59C19.45 16.67 20.62 17.25 20.86 17.37C20.91 17.39 20.95 17.41 20.99 17.43Z" fill="#FFFFFF" fill-opacity="1.000000" fill-rule="evenodd"/>
	</g>
</svg>
