<svg width="32.000000" height="32.000000" viewBox="0 0 32 32" fill="none" xmlns="http://www.w3.org/2000/svg" xmlns:xlink="http://www.w3.org/1999/xlink">
	<desc>
			Created with Pixso.
	</desc>
	<defs/>
	<path id="Vector" d="M16 0C7.16345 0 0 7.16406 0 16C0 24.8359 7.16345 32 16 32C24.8365 32 32 24.8359 32 16C32 7.16406 24.8365 0 16 0ZM15.5544 13.5586L15.5208 13.0039C15.42 11.5703 16.3042 10.2578 17.7032 9.75C18.218 9.57031 19.0909 9.54688 19.6617 9.70703C19.8855 9.77344 20.3109 10 20.613 10.2031L21.1614 10.5742L21.7657 10.3828C22.1016 10.2812 22.5492 10.1133 22.7506 10C22.9409 9.89844 23.1088 9.83984 23.1088 9.875C23.1088 10.0664 22.6947 10.7227 22.3478 11.0859C21.8777 11.5938 22.012 11.6367 22.9633 11.3008C23.5341 11.1055 23.5452 11.1055 23.4333 11.3203C23.3661 11.4336 23.0192 11.8281 22.6499 12.1914C22.0232 12.8125 21.9896 12.8789 21.9896 13.4023C21.9896 14.2031 21.609 15.875 21.2285 16.7891C20.5234 18.5078 19.0126 20.2812 17.5017 21.1758C15.3754 22.4297 12.5438 22.7461 10.16 22.0117C9.36536 21.7617 8 21.1289 8 21.0156C8 20.9805 8.41406 20.9375 8.91772 20.9258C9.96973 20.9023 11.0217 20.6094 11.9171 20.0898L12.5215 19.7266L11.8275 19.4922C10.8427 19.1523 9.9585 18.3711 9.73474 17.6367C9.66748 17.3984 9.68994 17.3906 10.3167 17.3906L10.9658 17.3789L10.4174 17.1172C9.76831 16.7891 9.17517 16.2383 8.88416 15.6719C8.67151 15.2656 8.40295 14.2383 8.48132 14.1562C8.50354 14.125 8.73865 14.1914 9.00732 14.2812C9.77942 14.5625 9.88025 14.4961 9.4325 14.0234C8.59314 13.1641 8.33569 11.8867 8.73865 10.6758L8.92896 10.1367L9.66748 10.8711C11.1785 12.3516 12.9579 13.2305 14.9948 13.4922L15.5544 13.5586Z" fill="#FFFFFF" fill-opacity="1.000000" fill-rule="evenodd"/>
</svg>
