<svg width="32.000000" height="32.000000" viewBox="0 0 32 32" fill="none" xmlns="http://www.w3.org/2000/svg" xmlns:xlink="http://www.w3.org/1999/xlink">
	<desc>
			Created with Pixso.
	</desc>
	<defs/>
	<path id="Vector" d="M16 0C7.16345 0 0 7.16406 0 16C0 24.8359 7.16345 32 16 32C24.8365 32 32 24.8359 32 16C32 7.16406 24.8365 0 16 0ZM22.6677 10.5C23.4021 10.6992 23.9803 11.293 24.1766 12.0469C24.5333 13.4141 24.5333 16.2656 24.5333 16.2656C24.5333 16.2656 24.5333 19.1172 24.1766 20.4844C23.9803 21.2383 23.4021 21.832 22.6677 22.0352C21.3369 22.3984 16 22.3984 16 22.3984C16 22.3984 10.6631 22.3984 9.33215 22.0352C8.59778 21.832 8.01941 21.2383 7.82324 20.4844C7.46667 19.1172 7.46667 16.2656 7.46667 16.2656C7.46667 16.2656 7.46667 13.4141 7.82324 12.0469C8.01941 11.293 8.59778 10.6992 9.33215 10.5C10.6631 10.1328 16 10.1328 16 10.1328C16 10.1328 21.3369 10.1328 22.6677 10.5Z" fill="#FFFFFF" fill-opacity="1.000000" fill-rule="evenodd"/>
</svg>
