<svg width="48.75" height="56.875" fill="none" xmlns="http://www.w3.org/2000/svg"><path id="Frame 608" fill="#FFF" fill-opacity="0" d="M0 0h48.75v56.875H0z"/><path id="Vector" d="M44.688 56.875h-4.063v-6.094a10.178 10.178 0 0 0-2.978-7.18 10.177 10.177 0 0 0-7.178-2.976H18.28a10.177 10.177 0 0 0-7.178 2.977 10.178 10.178 0 0 0-2.978 7.18v6.093H4.062v-6.094a14.243 14.243 0 0 1 4.17-10.05 14.238 14.238 0 0 1 10.05-4.169h12.187a14.238 14.238 0 0 1 10.05 4.169 14.243 14.243 0 0 1 4.169 10.05v6.094ZM2.031 8.125c-.538 0-1.055.215-1.436.594A2.036 2.036 0 0 0 0 10.156v18.282h4.063V10.155c0-.539-.214-1.054-.595-1.437a2.038 2.038 0 0 0-1.437-.594Z" fill="#FFF" fill-opacity="1" fill-rule="nonzero"/><path id="Vector" d="M0 0v4.063h10.156V18.28c0 3.77 1.498 7.387 4.165 10.055A14.212 14.212 0 0 0 24.375 32.5c3.771 0 7.388-1.496 10.054-4.164a14.225 14.225 0 0 0 4.165-10.055V4.063H48.75V0H0Zm14.219 4.063H34.53v6.093H14.22V4.062Zm10.156 24.375c-2.694 0-5.277-1.07-7.181-2.977a10.145 10.145 0 0 1-2.975-7.18V14.22H34.53v4.062c0 2.696-1.07 5.278-2.974 7.18a10.151 10.151 0 0 1-7.182 2.977Z" fill="#FFF" fill-opacity="1" fill-rule="nonzero"/></svg>