<svg width="204" height="204" fill="none" xmlns="http://www.w3.org/2000/svg"><defs><clipPath id="clip318_15448"><path id="elements" fill="#fff" fill-opacity="0" d="M0 0h204v204H0z"/></clipPath></defs><g clip-path="url('#clip318_15448')" fill="#5AC4FF" fill-opacity="1"><circle id="Ellipse 196" cx="4" cy="4" r="4"/><circle id="Ellipse 230" cx="4" cy="116" r="4"/><circle id="Ellipse 214" cx="116" cy="4" r="4"/><circle id="Ellipse 231" cx="116" cy="116" r="4"/><circle id="Ellipse 206" cx="4" cy="60" r="4"/><circle id="Ellipse 232" cx="4" cy="172" r="4"/><circle id="Ellipse 215" cx="116" cy="60" r="4"/><circle id="Ellipse 233" cx="116" cy="172" r="4"/><circle id="Ellipse 202" cx="60" cy="4" r="4"/><circle id="Ellipse 234" cx="60" cy="116" r="4"/><circle id="Ellipse 216" cx="172" cy="4" r="4"/><circle id="Ellipse 235" cx="172" cy="116" r="4"/><circle id="Ellipse 207" cx="60" cy="60" r="4"/><circle id="Ellipse 236" cx="60" cy="172" r="4"/><circle id="Ellipse 217" cx="172" cy="60" r="4"/><circle id="Ellipse 237" cx="172" cy="172" r="4"/><circle id="Ellipse 200" cx="4" cy="32" r="4"/><circle id="Ellipse 238" cx="4" cy="144" r="4"/><circle id="Ellipse 218" cx="116" cy="32" r="4"/><circle id="Ellipse 239" cx="116" cy="144" r="4"/><circle id="Ellipse 208" cx="4" cy="88" r="4"/><circle id="Ellipse 240" cx="4" cy="200" r="4"/><circle id="Ellipse 219" cx="116" cy="88" r="4"/><circle id="Ellipse 241" cx="116" cy="200" r="4"/><circle id="Ellipse 203" cx="60" cy="32" r="4"/><circle id="Ellipse 242" cx="60" cy="144" r="4"/><circle id="Ellipse 220" cx="172" cy="32" r="4"/><circle id="Ellipse 243" cx="172" cy="144" r="4"/><circle id="Ellipse 209" cx="60" cy="88" r="4"/><circle id="Ellipse 244" cx="60" cy="200" r="4"/><circle id="Ellipse 221" cx="172" cy="88" r="4"/><circle id="Ellipse 245" cx="172" cy="200" r="4"/><circle id="Ellipse 199" cx="32" cy="4" r="4"/><circle id="Ellipse 246" cx="32" cy="116" r="4"/><circle id="Ellipse 222" cx="144" cy="4" r="4"/><circle id="Ellipse 247" cx="144" cy="116" r="4"/><circle id="Ellipse 210" cx="32" cy="60" r="4"/><circle id="Ellipse 248" cx="32" cy="172" r="4"/><circle id="Ellipse 223" cx="144" cy="60" r="4"/><circle id="Ellipse 249" cx="144" cy="172" r="4"/><circle id="Ellipse 204" cx="88" cy="4" r="4"/><circle id="Ellipse 250" cx="88" cy="116" r="4"/><circle id="Ellipse 224" cx="200" cy="4" r="4"/><circle id="Ellipse 251" cx="200" cy="116" r="4"/><circle id="Ellipse 211" cx="88" cy="60" r="4"/><circle id="Ellipse 252" cx="88" cy="172" r="4"/><circle id="Ellipse 225" cx="200" cy="60" r="4"/><circle id="Ellipse 253" cx="200" cy="172" r="4"/><circle id="Ellipse 201" cx="32" cy="32" r="4"/><circle id="Ellipse 254" cx="32" cy="144" r="4"/><circle id="Ellipse 226" cx="144" cy="32" r="4"/><circle id="Ellipse 255" cx="144" cy="144" r="4"/><circle id="Ellipse 212" cx="32" cy="88" r="4"/><circle id="Ellipse 256" cx="32" cy="200" r="4"/><circle id="Ellipse 227" cx="144" cy="88" r="4"/><circle id="Ellipse 257" cx="144" cy="200" r="4"/><circle id="Ellipse 205" cx="88" cy="32" r="4"/><circle id="Ellipse 258" cx="88" cy="144" r="4"/><circle id="Ellipse 228" cx="200" cy="32" r="4"/><circle id="Ellipse 259" cx="200" cy="144" r="4"/><circle id="Ellipse 213" cx="88" cy="88" r="4"/><circle id="Ellipse 260" cx="88" cy="200" r="4"/><circle id="Ellipse 229" cx="200" cy="88" r="4"/><circle id="Ellipse 261" cx="200" cy="200" r="4"/></g></svg>