<svg width="27" height="35" fill="none" xmlns="http://www.w3.org/2000/svg"><path id="Vector" d="M8.438 4.922C8.438 2.203 10.704 0 13.5 0c2.796 0 5.063 2.203 5.063 4.922S16.296 9.844 13.5 9.844 8.437 7.64 8.437 4.922Zm17.903.094a2.293 2.293 0 0 0-3.182 0l-6.091 5.921H9.932L3.84 5.016a2.293 2.293 0 0 0-3.182 0 2.145 2.145 0 0 0 0 3.093l6.653 6.47v18.233C7.313 34.02 8.32 35 9.563 35h1.126c1.242 0 2.25-.98 2.25-2.188v-7.656h1.124v7.657c0 1.206 1.008 2.187 2.25 2.187h1.125c1.243 0 2.25-.98 2.25-2.188V14.578l6.654-6.469a2.145 2.145 0 0 0 0-3.093Z" fill="#B4E4FF" fill-opacity="1" fill-rule="nonzero"/></svg>