<svg width="70" height="70" fill="none" xmlns="http://www.w3.org/2000/svg"><defs><clipPath id="clip318_7368"><path id="8396420_think_idea_work_mind_thinking_icon 1" fill="#fff" fill-opacity="0" d="M0 0h70v70H0z"/></clipPath></defs><g clip-path="url('#clip318_7368')" fill="#FFF" fill-opacity="1" fill-rule="nonzero"><path id="Vector" d="M59.062 70H26.25a2.188 2.188 0 0 1-2.188-2.188V61.25h-4.375a6.563 6.563 0 0 1-6.562-6.563V47.29l-7.54-3.758a2.2 2.2 0 0 1-1.181-2.316c.05-.305.166-.598.338-.856l8.383-12.597A28.438 28.438 0 0 1 33.152 1.25a28.432 28.432 0 0 1 31.49 10.594 2.173 2.173 0 0 1 .388 1.629 2.216 2.216 0 0 1-.298.8 2.192 2.192 0 0 1-3.01.715 2.194 2.194 0 0 1-.625-.582 24.046 24.046 0 0 0-12.012-8.804 24.052 24.052 0 0 0-26.964 8.676 24.068 24.068 0 0 0-4.621 14.16c0 .43-.129.851-.368 1.214L9.756 40.715l6.534 3.265a2.182 2.182 0 0 1 1.21 1.958v8.75a2.191 2.191 0 0 0 2.187 2.187h6.563a2.188 2.188 0 0 1 2.187 2.188v6.562h28.438v-4.45a39.588 39.588 0 0 1 5.348-20.378 24.067 24.067 0 0 0 3.281-14.828 22.787 22.787 0 0 0-.627-3.547 2.185 2.185 0 0 1 4.235-1.094c.358 1.387.608 2.793.748 4.215a28.364 28.364 0 0 1-3.883 17.5 35.234 35.234 0 0 0-4.727 18.133v6.636A2.191 2.191 0 0 1 59.062 70Z"/><path id="Vector" d="M30.625 61.25H26.25a2.188 2.188 0 0 1 0-4.375h4.375a2.188 2.188 0 0 1 0 4.375ZM43.908 41.563h-4.69A4.227 4.227 0 0 1 35 37.602a4.213 4.213 0 0 1-5.532-1.666l-2.343-4.062a4.225 4.225 0 0 1 1.328-5.625 4.225 4.225 0 0 1-1.328-5.625l2.345-4.063a4.207 4.207 0 0 1 2.435-1.925 4.228 4.228 0 0 1 3.095.261 4.227 4.227 0 0 1 4.218-3.96h4.69a4.218 4.218 0 0 1 4.217 3.96 4.218 4.218 0 0 1 3.098-.265 4.233 4.233 0 0 1 2.437 1.933L56 20.625a4.225 4.225 0 0 1-1.328 5.625 4.232 4.232 0 0 1 1.326 5.625l-2.347 4.063a4.216 4.216 0 0 1-5.534 1.664 4.214 4.214 0 0 1-1.32 2.812 4.207 4.207 0 0 1-2.89 1.148Zm-4.533-4.376h4.375a4.22 4.22 0 0 1 6.187-3.574l2.187-3.793a4.21 4.21 0 0 1-1.976-3.57 4.21 4.21 0 0 1 1.976-3.57l-2.187-3.793c-.632.332-1.337.5-2.05.488a4.26 4.26 0 0 1-2.031-.566 4.22 4.22 0 0 1-2.106-3.496h-4.375a4.223 4.223 0 0 1-2.106 3.496 4.211 4.211 0 0 1-2.03.562 4.166 4.166 0 0 1-2.05-.488l-2.188 3.797a4.212 4.212 0 0 1 1.976 3.57 4.212 4.212 0 0 1-1.975 3.57l2.187 3.797a4.166 4.166 0 0 1 2.05-.488 4.211 4.211 0 0 1 4.136 4.059Z"/><path id="Vector" d="M41.563 30.625a4.378 4.378 0 0 1-4.291-5.23 4.38 4.38 0 0 1 1.197-2.239 4.356 4.356 0 0 1 2.24-1.195 4.343 4.343 0 0 1 2.528.246A4.39 4.39 0 0 1 45.2 23.82a4.375 4.375 0 0 1-3.638 6.805Z"/></g></svg>