<svg width="65" height="65" fill="none" xmlns="http://www.w3.org/2000/svg"><defs><clipPath id="clip318_15815"><path id="computer 1" fill="#fff" fill-opacity="0" d="M0 0h65v65H0z"/></clipPath></defs><path id="computer 1" fill="#FFF" fill-opacity="0" d="M0 0h65v65H0z"/><g clip-path="url('#clip318_15815')"><path id="Vector" d="M54.167 5.418H10.834a5.418 5.418 0 0 0-5.417 5.418v32.5a5.418 5.418 0 0 0 5.417 5.414h16.25v5.418h-8.125v5.418h27.083v-5.418h-8.125V48.75h16.25a5.418 5.418 0 0 0 5.417-5.414v-32.5a5.418 5.418 0 0 0-5.417-5.418Zm0 37.918H10.834v-32.5h43.333v32.5Z" fill="#FFF" fill-opacity="1" fill-rule="nonzero"/></g></svg>