<svg width="35.001" height="35" fill="none" xmlns="http://www.w3.org/2000/svg"><path id="Vector" d="M8.75 17.5c-1.73 0-3.422.512-4.861 1.477a8.744 8.744 0 0 0-1.326 13.46 8.744 8.744 0 0 0 4.48 2.395 8.78 8.78 0 0 0 5.055-.496 8.754 8.754 0 0 0 2.84-14.273A8.751 8.751 0 0 0 8.75 17.5Zm25.908-3.75-7.31-12.5A2.555 2.555 0 0 0 25.157 0a2.554 2.554 0 0 0-2.192 1.25l-7.31 12.5c-.973 1.668.245 3.75 2.194 3.75h14.617c1.948 0 3.167-2.082 2.193-3.75Zm-1.846 5.938H21.876a2.188 2.188 0 0 0-2.188 2.187v10.938A2.185 2.185 0 0 0 21.875 35h10.938A2.188 2.188 0 0 0 35 32.812V21.876a2.185 2.185 0 0 0-2.188-2.188Z" fill="#F5FFC0" fill-opacity="1" fill-rule="nonzero"/></svg>