<svg width="29.167" height="29.168" fill="none" xmlns="http://www.w3.org/2000/svg"><path id="Vector" d="M19.688 0h-5.47c-.603 0-1.093.488-1.093 1.094v4.843c-4.947.708-8.75 4.961-8.75 10.106H3.281A3.281 3.281 0 0 0 0 19.324v8.75c0 .602.49 1.094 1.094 1.094h10.573a.366.366 0 0 0 .364-.367v-4.375c0-.403.327-.727.73-.727h3.645c.403 0 .73.324.73.727V28.8c0 .203.163.367.364.367h10.573c.604 0 1.094-.492 1.094-1.094v-8.75a3.281 3.281 0 0 0-3.282-3.281h-1.093c0-5.395-4.182-9.809-9.48-10.184V4.375h4.376a.73.73 0 0 0 .729-.73V.73a.73.73 0 0 0-.73-.73Zm0 14.219v2.918c0 .601-.49 1.093-1.094 1.093a1.095 1.095 0 0 1-1.094-1.093v-2.918a1.093 1.093 0 1 1 2.188 0Zm-5.47-1.094c.605 0 1.095.488 1.095 1.094v2.918c0 .601-.49 1.093-1.094 1.093a1.095 1.095 0 0 1-1.094-1.093v-2.918c0-.606.49-1.094 1.094-1.094Zm-3.28 1.094v2.918c0 .601-.49 1.093-1.094 1.093a1.095 1.095 0 0 1-1.094-1.093v-2.918a1.093 1.093 0 1 1 2.188 0Zm-5.47 5.469c.605 0 1.095.488 1.095 1.093v3.645a1.093 1.093 0 1 1-2.188 0V20.78c0-.605.49-1.093 1.094-1.093Zm19.324 1.093v3.645a1.093 1.093 0 1 1-2.188 0V20.78a1.093 1.093 0 1 1 2.188 0Z" fill="#CC9DFF" fill-opacity="1" fill-rule="nonzero"/></svg>