<svg width="32" height="32" fill="none" xmlns="http://www.w3.org/2000/svg"><path id="Vector" d="M0 16C0 7.164 7.163 0 16 0s16 7.164 16 16-7.163 16-16 16S0 24.836 0 16Zm13.072-.457v1.738h2.883c-.116.746-.871 2.184-2.883 2.184-1.736 0-3.152-1.434-3.152-3.2 0-1.765 1.416-3.199 3.152-3.199.988 0 1.649.422 2.026.782l1.38-1.325c-.886-.824-2.033-1.324-3.406-1.324a5.071 5.071 0 0 0-5.083 5.067c0 2.8 2.272 5.066 5.083 5.066 2.934 0 4.88-2.055 4.88-4.95 0-.331-.036-.585-.08-.839h-4.8Zm9.44 0h1.453v1.45h-1.452v1.445H21.06v-1.446h-1.452v-1.449h1.452v-1.45h1.453v1.45Z" fill="#FFF" fill-opacity="1" fill-rule="evenodd"/></svg>