<svg width="32" height="32" fill="none" xmlns="http://www.w3.org/2000/svg"><defs><clipPath id="clip9_1166"><path id="1488803316" fill="#fff" fill-opacity="0" d="M0 0h32v32H0z"/></clipPath></defs><path id="1488803316" fill="#FFF" fill-opacity="0" d="M0 0h32v32H0z"/><g clip-path="url('#clip9_1166')" fill="#FFF" fill-opacity="1"><path id="Vector" d="M16 0C7.16 0 0 7.16 0 16c0 8.83 7.16 16 16 16 8.83 0 16-7.17 16-16 0-8.84-7.17-16-16-16Zm-3.52 7.51c.91-.04 1.2-.05 3.52-.05h-.01c2.32 0 2.61.01 3.52.05.91.04 1.53.19 2.07.4.57.22 1.04.51 1.52.98.47.48.76.95.98 1.52.21.54.35 1.16.4 2.07.04.91.05 1.2.05 3.52 0 2.31-.01 2.6-.05 3.51-.05.91-.19 1.53-.4 2.07-.22.56-.51 1.04-.98 1.52-.48.47-.95.76-1.52.98-.54.21-1.16.36-2.07.4-.91.04-1.2.05-3.52.05-2.31 0-2.6-.01-3.51-.05-.91-.04-1.53-.19-2.07-.4-.57-.22-1.04-.51-1.52-.98-.47-.48-.76-.96-.98-1.52-.21-.54-.35-1.16-.4-2.07-.04-.91-.05-1.2-.05-3.51 0-2.32.01-2.61.05-3.52.04-.91.19-1.53.4-2.07.22-.57.51-1.04.98-1.52.48-.47.95-.76 1.52-.98.54-.21 1.16-.36 2.07-.4Z" fill-rule="evenodd"/><path id="Vector" d="M15.23 9H16c2.27 0 2.54.01 3.44.05.84.04 1.29.18 1.59.29.4.16.68.34.98.64.3.3.48.59.64.98.11.3.25.75.29 1.59.04.9.05 1.17.05 3.45 0 2.27-.01 2.54-.05 3.44-.04.83-.18 1.29-.29 1.59-.16.39-.34.68-.64.98-.3.29-.58.48-.98.63-.3.12-.75.26-1.59.3-.9.04-1.17.05-3.44.05-2.28 0-2.55-.01-3.45-.05-.83-.04-1.29-.18-1.59-.3-.4-.15-.68-.34-.98-.63-.3-.3-.48-.59-.64-.98-.11-.3-.25-.76-.29-1.59-.04-.9-.05-1.17-.05-3.45 0-2.28.01-2.55.05-3.44.04-.84.18-1.29.29-1.59.16-.4.34-.68.64-.98.3-.3.58-.48.98-.64.3-.11.76-.26 1.59-.29.78-.04 1.09-.05 2.68-.05Zm5.32 1.42c-.56 0-1.02.46-1.02 1.02 0 .57.46 1.02 1.02 1.02.57 0 1.02-.45 1.02-1.02 0-.56-.45-1.02-1.02-1.02ZM11.61 16c0-2.42 1.97-4.38 4.39-4.38s4.38 1.96 4.38 4.38-1.96 4.38-4.38 4.38-4.39-1.96-4.39-4.38Z" fill-rule="evenodd"/><path id="Vector" d="M16 13.15A2.84 2.84 0 0 1 18.84 16c0 1.57-1.27 2.84-2.84 2.84A2.84 2.84 0 0 1 13.15 16c0-1.58 1.27-2.85 2.85-2.85Z" fill-rule="nonzero"/></g></svg>