<svg width="36" height="36" fill="none" xmlns="http://www.w3.org/2000/svg"><path id="Subtract" d="M9.175 10.078C6.61 11.25 1.215 12.441.146 7.801-.923 3.164 4.134 1.14 6.796.707 12.483.051 24.708-1.32 31.534 3.336a10.454 10.454 0 0 1 2.13 2.27c3.932 6.43 1.923 18.085.963 23.663l-.055.317c-.578 2.61-2.895 7.5-7.542 6.2-4.648-1.302-3.16-6.571-1.835-9.044 1.223-2.34 2.34-8.031 1.63-8.738-.305-.305-2.038-1.934-7.745 7.316-4.232 6.852-9.374 5.278-11.889 3.313l-.581-.57c-1.982-2.422-3.825-7.899 3.68-11.899 9.629-5.133 8.079-6.922 7.787-7.238-.676-.735-6.48.07-8.902 1.152Z" fill="#883CDA" fill-opacity="1" fill-rule="evenodd"/></svg>