<svg width="70" height="70" fill="none" xmlns="http://www.w3.org/2000/svg"><defs><clipPath id="clip318_7359"><path id="392507_edit_editor_pen_pencil_write_icon 1" fill="#fff" fill-opacity="0" d="M0 0h70v70H0z"/></clipPath></defs><g clip-path="url('#clip318_7359')"><path id="Vector" d="M1419.69 301.875h56.87v39.375h-30.62M1428.44 341.25h-8.75v-30.625M1445.94 341.25l-17.5 13.125V341.25" stroke="#FFF" stroke-opacity="1" stroke-width="2" stroke-linejoin="round" stroke-linecap="round"/><path id="Vector" d="M61.626 8.371a13.566 13.566 0 0 0-7.728-3.867c-4.29-.606-8.52.805-11.58 3.867a2.186 2.186 0 0 0 0 3.094c.045.047.104.062.152.101.04.047.055.106.1.153l6.31 6.308-32.585 32.586-5.016-5.015 27.643-27.645a2.186 2.186 0 0 0 0-3.094 2.185 2.185 0 0 0-3.093 0L6.643 44.043l-.006.008-1.623 1.62a2.2 2.2 0 0 0-.639 1.548v16.215c0 1.21.98 2.187 2.188 2.187H22.78a2.17 2.17 0 0 0 1.546-.64l37.3-37.297c5.321-5.325 5.321-13.989 0-19.313Zm-8.343.469a9.202 9.202 0 0 1 5.248 2.625c3.082 3.082 3.513 7.8 1.343 11.37l-6.357-6.358-6.379-6.38a9.225 9.225 0 0 1 6.145-1.257ZM8.75 61.246V49.254l5.994 5.996c.002 0 .002.004.002.004h.004l5.992 5.992H8.75Zm10.638-7.543L51.97 21.121l5.016 5.016-32.585 32.586-5.014-5.02Z" fill="#FFF" fill-opacity="1" fill-rule="nonzero"/></g></svg>