<svg width="35" height="35" fill="none" xmlns="http://www.w3.org/2000/svg"><path id="Vector" d="m24.953 21.918-7.453 6.52-7.453-6.52C4.46 22.128 0 26.128 0 31.063v.656C0 33.53 1.68 35 3.75 35h27.5c2.07 0 3.75-1.469 3.75-3.281v-.657c0-4.933-4.46-8.933-10.047-9.144ZM1.063 5.457l.5.102V9.55c-.547.289-.938.785-.938 1.386 0 .575.36 1.055.867 1.348L.273 16.543c-.132.473.164.957.594.957h3.266c.43 0 .726-.484.594-.957l-1.22-4.258c.509-.293.868-.773.868-1.348 0-.601-.39-1.097-.938-1.386V5.957l5.157 1.086C7.922 8.219 7.5 9.531 7.5 10.937c0 4.836 4.477 8.75 10 8.75s10-3.914 10-8.75c0-1.406-.414-2.718-1.094-3.894l7.524-1.586c1.422-.3 1.422-1.852 0-2.152L19.055.16a7.543 7.543 0 0 0-3.102 0L1.063 3.297c-1.415.3-1.415 1.86 0 2.16Z" fill="#ACFFD7" fill-opacity="1" fill-rule="nonzero"/></svg>