<svg width="77" height="77" fill="none" xmlns="http://www.w3.org/2000/svg"><defs><clipPath id="clip318_7365"><path id="7218105_chat_communication_message_talk_chatting_icon 1" fill="#fff" fill-opacity="0" d="M0 0h77v77H0z"/></clipPath></defs><g clip-path="url('#clip318_7365')"><path id="Vector" d="M49.277 22.79H67.69c4.614 0 8.382 3.769 8.382 8.382v17.031c0 4.613-3.768 8.383-8.382 8.383h-3.203l-5.25 12.766c-.64 1.558-2.835 1.527-3.463 0l-5.249-12.766h-14.42c-4.614 0-8.381-3.77-8.381-8.383v-7.918h-1.249l-5.249 12.77c-.628 1.523-2.823 1.558-3.462 0l-5.25-12.77H9.31C4.697 40.285.93 36.52.93 31.906V14.871c0-4.61 3.768-8.379 8.381-8.379h31.586c4.613 0 8.381 3.766 8.381 8.38v7.917Zm-40.043-.802c-2.47 0-2.47-3.758 0-3.758h31.738c2.47 0 2.47 3.758 0 3.758H9.234ZM31.48 40.285v7.918c0 2.54 2.085 4.625 4.625 4.625l15.672.004a1.88 1.88 0 0 1 1.732 1.16l3.997 9.727 3.938-9.578a1.878 1.878 0 0 1 1.79-1.313h4.456c2.54 0 4.625-2.086 4.625-4.625V31.172c0-2.54-2.086-4.625-4.625-4.625H49.277v5.36c0 4.613-3.768 8.378-8.381 8.378H31.48Zm9.416-30.035H9.31c-2.539 0-4.624 2.082-4.624 4.621v17.035c0 2.54 2.085 4.625 4.624 4.625h4.456c.84 0 1.55.551 1.791 1.309l3.937 9.578 3.998-9.723a1.871 1.871 0 0 1 1.731-1.16l15.673-.004c2.54 0 4.624-2.086 4.624-4.625V14.871c0-2.539-2.084-4.621-4.624-4.621Z" fill="#FFF" fill-opacity="1" fill-rule="nonzero"/></g></svg>