<svg width="32" height="32" fill="none" xmlns="http://www.w3.org/2000/svg"><path id="Vector" d="M0 16c0 8.836 7.163 16 16 16s16-7.164 16-16S24.837 0 16 0 0 7.164 0 16Zm13.067 7.332.272-4.078 7.419-6.695c.326-.29-.071-.43-.503-.168l-9.157 5.777-3.955-1.234c-.854-.262-.86-.848.192-1.27L22.747 9.72c.704-.317 1.383.172 1.114 1.25l-2.624 12.367c-.183.879-.714 1.09-1.45.684l-3.998-2.954-1.922 1.868c-.006.003-.012.011-.018.015-.215.211-.393.383-.782.383Z" fill="#FFF" fill-opacity="1" fill-rule="evenodd"/></svg>