<svg width="217" height="37" fill="none" xmlns="http://www.w3.org/2000/svg"><path id="EV School" d="M133.69 13.6c1.83-2.19 4.14-3.28 6.91-3.28 5.61 0 8.45 3.24 8.53 9.72v16.48h-6.91V20.23c0-1.47-.31-2.56-.95-3.26-.64-.71-1.7-1.07-3.18-1.07q-1.88 0-3.11.89-.77.55-1.29 1.44v18.29h-6.91V0h6.91v13.6ZM217 36.52h-6.94V0H217v36.52ZM89.8 27.44c0-1.35-.48-2.38-1.43-3.09-.96-.73-2.68-1.5-5.17-2.29-2.48-.81-4.45-1.6-5.9-2.38q-4.16-2.23-5.4-5.56-.53-1.41-.53-3.02 0-1.69.58-3.16.38-.97 1-1.84c1.07-1.47 2.59-2.62 4.57-3.44q2.98-1.24 6.69-1.24c2.48 0 4.7.45 6.64 1.36 1.95.88 3.45 2.14 4.52 3.78C96.46 8.19 97 10.05 97 12.12h-7.17q0-1.77-.84-2.95-.29-.4-.67-.73-1.51-1.34-4.23-1.34c-1.75 0-3.12.38-4.09 1.12-.97.73-1.46 1.7-1.46 2.9 0 1.13.57 2.07 1.7 2.83 1.15.76 2.83 1.48 5.04 2.14 4.08 1.23 7.06 2.74 8.92 4.55q1.23 1.19 1.92 2.63.88 1.85.88 4.12 0 2.53-1.08 4.44-.84 1.5-2.34 2.62c-2.28 1.7-5.35 2.55-9.2 2.55q-4.02 0-7.32-1.45c-2.2-.99-3.88-2.33-5.04-4.02-1.15-1.7-1.72-3.67-1.72-5.9h7.19c0 3.82 2.3 5.73 6.89 5.73 1.7 0 3.03-.34 3.99-1.02.95-.7 1.43-1.67 1.43-2.9Zm-68.87-5.93H7.17v9.28h16.16v5.73H0V1.9h23.28v5.77H7.17v8.26h13.76v5.58Zm19.46 6.43L48.28 1.9h7.98L44.15 36.52h-7.49L24.59 1.9h7.96l7.84 26.04Zm71.79 3.52c1.27 0 2.31-.36 3.1-1.05.8-.7 1.22-1.63 1.25-2.78h6.48c-.02 1.74-.5 3.34-1.44 4.8-.94 1.44-2.23 2.57-3.87 3.38-1.63.79-3.43 1.19-5.4 1.19-3.7 0-6.62-1.17-8.75-3.5-2.14-2.34-3.21-5.58-3.21-9.7v-.45c0-3.97 1.06-7.13 3.18-9.49 2.12-2.36 5.03-3.54 8.73-3.54 3.23 0 5.82.91 7.77 2.75 1.96 1.83 2.95 4.26 2.99 7.3h-6.48c-.03-1.33-.45-2.41-1.25-3.23-.79-.84-1.84-1.26-3.15-1.26q-1.53 0-2.59.7-.61.41-1.07 1.06c-.81 1.16-1.22 3.04-1.22 5.66v.71c0 2.65.41 4.55 1.22 5.71.81 1.16 2.05 1.74 3.71 1.74Zm41.09-8.04c0-2.55.49-4.83 1.48-6.83q.91-1.83 2.3-3.16.88-.84 1.95-1.47c1.87-1.1 4.03-1.64 6.48-1.64 3.49 0 6.34 1.06 8.54 3.18 2.21 2.12 3.45 5.01 3.7 8.66l.05 1.76q0 4.96-2.33 8.28-.45.65-.99 1.23-.97 1.03-2.12 1.76-2.83 1.81-6.8 1.81c-3.73 0-6.71-1.19-8.94-3.57-2.21-2.38-3.32-5.61-3.32-9.7v-.31Zm27.68 0c0-2.55.49-4.83 1.48-6.83.99-1.99 2.41-3.54 4.26-4.63 1.86-1.1 4.02-1.64 6.47-1.64 3.49 0 6.34 1.06 8.54 3.18 2.21 2.12 3.45 5.01 3.7 8.66l.05 1.76c0 3.94-1.11 7.11-3.32 9.51q-.96 1.03-2.12 1.76-2.83 1.81-6.8 1.81-3.95 0-6.79-1.79-1.17-.74-2.15-1.78c-2.21-2.38-3.32-5.61-3.32-9.7v-.31Zm-20.78.5q0 3.66 1.39 5.61c.93 1.28 2.25 1.93 3.97 1.93 1.67 0 2.98-.64 3.92-1.91.94-1.28 1.41-3.33 1.41-6.13 0-2.4-.47-4.25-1.41-5.57q-.62-.86-1.45-1.34-1.08-.63-2.52-.63c-1.69 0-2.99.66-3.92 1.97q-1.39 1.95-1.39 6.07Zm27.69 0c0 2.44.46 4.31 1.38 5.61.93 1.28 2.25 1.93 3.97 1.93 1.67 0 2.98-.64 3.92-1.91.94-1.28 1.41-3.33 1.41-6.13 0-2.4-.47-4.25-1.41-5.57-.94-1.31-2.26-1.97-3.97-1.97-1.69 0-2.99.66-3.92 1.97-.92 1.3-1.38 3.32-1.38 6.07Z" fill="#FFF" fill-opacity="1" fill-rule="evenodd"/></svg>