<svg width="32" height="32" fill="none" xmlns="http://www.w3.org/2000/svg"><defs><clipPath id="clip9_1183"><path id="1488803311" fill="#fff" fill-opacity="0" d="M0 0h32v32H0z"/></clipPath></defs><path id="1488803311" fill="#FFF" fill-opacity="0" d="M0 0h32v32H0z"/><g clip-path="url('#clip9_1183')" fill="#FFF" fill-opacity="1" fill-rule="evenodd"><path id="Vector" d="M0 16c0 8.83 7.16 16 16 16 8.83 0 16-7.17 16-16 0-8.84-7.17-16-16-16C7.16 0 0 7.16 0 16Zm26.04-.62c-.01 5.25-4.27 9.51-9.52 9.52a9.5 9.5 0 0 1-4.55-1.16l-5.04 1.32 1.35-4.93a9.528 9.528 0 0 1-1.27-4.76c0-5.24 4.27-9.51 9.51-9.51 2.55 0 4.94.99 6.73 2.79 1.8 1.8 2.79 4.19 2.79 6.73Z"/><path id="Vector" d="m9.21 22.8 3-.79.28.18c1.22.72 2.61 1.1 4.03 1.1 4.36 0 7.91-3.55 7.91-7.91 0-2.11-.82-4.1-2.31-5.59a7.844 7.844 0 0 0-5.59-2.32c-4.37 0-7.91 3.54-7.92 7.9 0 1.5.42 2.95 1.21 4.21l.19.3-.8 2.92Zm11.78-5.37c.17.08.28.14.33.21.05.11.05.58-.14 1.14-.2.55-1.15 1.05-1.61 1.13-.41.06-.93.08-1.49-.1-.35-.11-.79-.26-1.36-.5-2.23-.96-3.74-3.12-4.02-3.53-.02-.03-.03-.05-.04-.06-.13-.17-.97-1.3-.97-2.46 0-1.09.54-1.67.78-1.93l.05-.05c.22-.24.48-.3.63-.3.16 0 .32 0 .46.01h.05c.14 0 .31 0 .48.41.07.15.17.39.27.63.2.5.43 1.05.47 1.13.06.12.1.26.02.42-.01.02-.03.04-.04.07-.06.12-.1.21-.2.33-.04.04-.08.09-.12.14-.08.1-.17.2-.24.27-.12.12-.24.25-.1.49.14.24.61 1.01 1.32 1.64.76.68 1.42.97 1.76 1.11.06.03.11.05.15.07.24.12.38.1.52-.06.14-.15.59-.69.75-.93.16-.23.32-.2.54-.12.21.08 1.38.66 1.62.78.05.02.09.04.13.06Z"/></g></svg>