<svg width="32" height="32" fill="none" xmlns="http://www.w3.org/2000/svg"><path id="Vector" d="M16 0C7.163 0 0 7.164 0 16s7.163 16 16 16 16-7.164 16-16S24.837 0 16 0Zm-.446 13.559-.033-.555c-.101-1.434.783-2.746 2.182-3.254.515-.18 1.388-.203 1.959-.043.224.066.649.293.951.496l.548.371.605-.191c.336-.102.783-.27.985-.383.19-.102.358-.16.358-.125 0 .191-.414.848-.761 1.21-.47.509-.336.552.615.216.571-.196.582-.196.47.02-.067.113-.414.507-.783.87-.627.621-.66.688-.66 1.211 0 .801-.381 2.473-.761 3.387-.706 1.719-2.216 3.492-3.727 4.387-2.127 1.254-4.958 1.57-7.342.836-.795-.25-2.16-.883-2.16-.996 0-.035.414-.078.918-.09a6.313 6.313 0 0 0 3-.836l.604-.363-.694-.235c-.985-.34-1.87-1.12-2.093-1.855-.068-.239-.045-.246.582-.246l.649-.012-.549-.262c-.649-.328-1.242-.879-1.533-1.445-.212-.406-.481-1.434-.403-1.516.023-.031.258.035.526.125.772.281.873.215.425-.258-.839-.859-1.096-2.136-.693-3.347l.19-.54.738.735c1.511 1.48 3.29 2.36 5.328 2.621l.56.067Z" fill="#FFF" fill-opacity="1" fill-rule="evenodd"/></svg>