<svg width="32" height="32" fill="none" xmlns="http://www.w3.org/2000/svg"><defs><clipPath id="clip9_1173"><path id="1488803312" fill="#fff" fill-opacity="0" d="M0 0h32v32H0z"/></clipPath></defs><path id="1488803312" fill="#FFF" fill-opacity="0" d="M0 0h32v32H0z"/><g clip-path="url('#clip9_1173')" fill="#FFF" fill-opacity="1"><path id="Vector" d="M16 0C7.16 0 0 7.16 0 16c0 8.83 7.16 16 16 16 8.83 0 16-7.17 16-16 0-8.84-7.17-16-16-16Zm6.66 10.5c.74.19 1.32.79 1.51 1.54.36 1.37.36 4.22.36 4.22s0 2.85-.36 4.22c-.19.75-.77 1.35-1.51 1.55-1.33.36-6.66.36-6.66.36s-5.34 0-6.67-.36c-.74-.2-1.32-.8-1.51-1.55-.36-1.37-.36-4.22-.36-4.22s0-2.85.36-4.22c.19-.75.77-1.35 1.51-1.54 1.33-.37 6.67-.37 6.67-.37s5.33 0 6.66.37Z" fill-rule="evenodd"/><path id="Vector" d="M14.4 19.19v-5.33l4.26 2.67-4.26 2.66Z" fill-rule="nonzero"/></g></svg>