<?xml version="1.0" encoding="UTF-8"?>
<svg xmlns="http://www.w3.org/2000/svg" xmlns:xlink="http://www.w3.org/1999/xlink" width="0" height="0">
<symbol id="sms" width="77.000000" height="77.000000" viewBox="0 0 77 77" fill="none">
	<desc>
			Created with Pixso.
	</desc>
	<defs>
		<clipPath>
			<rect id="7218105_chat_communication_message_talk_chatting_icon 1" width="77.000000" height="77.000000" fill="white" fill-opacity="0"/>
		</clipPath>
	</defs>
	<g clip-path="url(#clip318_7365)">
		<path id="Vector" d="M49.2772 22.7891L67.6901 22.7891C72.3037 22.7891 76.0715 26.5586 76.0715 31.1719L76.0715 48.2031C76.0715 52.8164 72.3037 56.5859 67.6901 56.5859L64.4869 56.5859L59.2375 69.3516C58.5973 70.9102 56.4019 70.8789 55.7744 69.3516L50.525 56.5859L36.1046 56.5859C31.491 56.5859 27.724 52.8164 27.724 48.2031L27.724 40.2852L26.4753 40.2852L21.226 53.0547C20.5984 54.5781 18.403 54.6133 17.7637 53.0547L12.5143 40.2852L9.3103 40.2852C4.69653 40.2852 0.928711 36.5195 0.928711 31.9062L0.928711 14.8711C0.928711 10.2617 4.69653 6.49219 9.3103 6.49219L40.8956 6.49219C45.5093 6.49219 49.2772 10.2578 49.2772 14.8711L49.2772 22.7891ZM9.23389 21.9883C6.76379 21.9883 6.76379 18.2305 9.23389 18.2305L40.972 18.2305C43.4421 18.2305 43.4421 21.9883 40.972 21.9883L9.23389 21.9883ZM31.4801 40.2852L31.4801 48.2031C31.4801 50.7422 33.5654 52.8281 36.1046 52.8281L51.7773 52.832C52.5131 52.8359 53.2115 53.2695 53.5089 53.9922L57.506 63.7188L61.4438 54.1406C61.684 53.3789 62.3951 52.8281 63.2346 52.8281L67.6901 52.8281C70.2301 52.8281 72.3147 50.7422 72.3147 48.2031L72.3147 31.1719C72.3147 28.6328 70.2292 26.5469 67.6901 26.5469L49.2772 26.5469L49.2772 31.9062C49.2772 36.5195 45.5093 40.2852 40.8956 40.2852L31.4801 40.2852ZM40.8956 10.25L9.3103 10.25C6.771 10.25 4.68567 12.332 4.68567 14.8711L4.68567 31.9062C4.68567 34.4453 6.771 36.5312 9.3103 36.5312L13.7656 36.5312C14.6051 36.5312 15.3163 37.082 15.5573 37.8398L19.4944 47.418L23.4923 37.6953C23.7888 36.9727 24.4873 36.5352 25.223 36.5352L40.8956 36.5312C43.4358 36.5312 45.5203 34.4453 45.5203 31.9062L45.5203 14.8711C45.5203 12.332 43.4358 10.25 40.8956 10.25Z" fill="#FFFFFF" fill-opacity="1.000000" fill-rule="nonzero"/>
	</g>
</symbol>

<symbol id="star" width="35.000000" height="36.000000" viewBox="0 0 35 36" fill="none">
	<desc>
			Created with Pixso.
	</desc>
	<defs/>
	<path d="M22.8969 12.5859L19.6321 1.61328C18.988 -0.539062 16.012 -0.539062 15.3901 1.61328L12.1031 12.5859L2.22003 12.5859C0.0657349 12.5859 -0.822632 15.418 0.931885 16.6875L9.01605 22.582L5.84015 33.0312C5.19604 35.1406 7.59467 36.8398 9.30481 35.5039L17.5 29.1562L25.6952 35.5234C27.4053 36.8633 29.804 35.1641 29.1599 33.0547L25.9839 22.6055L34.0681 16.7109C35.8226 15.418 34.9343 12.6094 32.78 12.6094L22.8969 12.6094L22.8969 12.5859Z" fill="#FFC6C9" fill-opacity="1.000000" fill-rule="nonzero"/>
</symbol>

<symbol id="telegram" width="32.000000" height="32.000000" viewBox="0 0 32 32" fill="none">
	<desc>
			Created with Pixso.
	</desc>
	<defs/>
	<path d="M0 16C0 24.8359 7.16345 32 16 32C24.8365 32 32 24.8359 32 16C32 7.16406 24.8365 0 16 0C7.16345 0 0 7.16406 0 16ZM13.0667 23.332L13.3389 19.2539L13.3386 19.2539L20.7579 12.5586C21.0835 12.2695 20.6869 12.1289 20.2546 12.3906L11.0981 18.168L7.14319 16.9336C6.28894 16.6719 6.28284 16.0859 7.33484 15.6641L22.7468 9.71875C23.4508 9.40234 24.1302 9.89062 23.8615 10.9688L21.2368 23.3359C21.0536 24.2148 20.5225 24.4258 19.7866 24.0195L15.7885 21.0664L13.8667 22.9336C13.8606 22.9375 13.8546 22.9453 13.8486 22.9492C13.6337 23.1602 13.4558 23.332 13.0667 23.332Z" fill="#FFFFFF" fill-opacity="1.000000" fill-rule="evenodd"/>
</symbol>

<symbol id="vertical-line" width="1.000000" height="30.000000" viewBox="0 0 1 30" fill="none">
	<desc>
			Created with Pixso.
	</desc>
	<defs/>
	<rect rx="0.500000" width="1.000000" height="30.000000" fill="#141516" fill-opacity="1.000000"/>
</symbol>

<symbol id="watsapp" width="15.000000" height="16.000000" viewBox="0 0 15 16" fill="none">
	<desc>
			Created with Pixso.
	</desc>
	<defs/>
	<path d="M0.567383 15.5078L3.40601 14.7109L3.67981 14.8867C4.8313 15.6133 6.15125 16 7.49707 16L7.50012 16C11.6339 16 14.9983 12.4141 15 8.00391C15.0009 5.86719 14.2214 3.85547 12.8054 2.34375C11.3894 0.832031 9.50635 0 7.50317 0C3.36609 0 0.00158691 3.58594 0 7.99609C-0.000610352 9.50781 0.395996 10.9805 1.14673 12.2539L1.32507 12.5547L0.567383 15.5078ZM11.7373 10.0742C11.8945 10.1562 12.0007 10.2109 12.0461 10.293C12.1024 10.3906 12.1024 10.875 11.9147 11.4336C11.7267 11.9961 10.826 12.5078 10.3927 12.5781C10.0043 12.6406 9.51282 12.668 8.97266 12.4844C8.64514 12.3711 8.22522 12.2227 7.68726 11.9766C5.57361 11.0039 4.14514 8.82031 3.87524 8.40625C3.85632 8.37891 3.84302 8.35547 3.83569 8.34766L3.83386 8.34375C3.7146 8.17578 2.91504 7.03516 2.91504 5.85938C2.91504 4.75391 3.42529 4.17188 3.66003 3.90234C3.67615 3.88672 3.69092 3.86719 3.70422 3.85547C3.91089 3.61328 4.15515 3.55469 4.30542 3.55469C4.45569 3.55469 4.6062 3.55469 4.73755 3.5625C4.75378 3.5625 4.77063 3.5625 4.78809 3.5625C4.91943 3.5625 5.08325 3.55859 5.24487 3.97266C5.30701 4.13281 5.39795 4.37109 5.4939 4.61719C5.68787 5.12109 5.90234 5.67969 5.93994 5.75781C5.99634 5.87891 6.03394 6.01953 5.95874 6.17969C5.94751 6.20312 5.93701 6.22656 5.92712 6.25C5.87073 6.37109 5.8291 6.46094 5.7334 6.58203C5.69568 6.62891 5.65674 6.67969 5.6178 6.73047C5.54028 6.83203 5.46265 6.92969 5.39514 7.00391C5.28223 7.12109 5.16467 7.25391 5.29626 7.49219C5.42773 7.73438 5.88025 8.51953 6.55054 9.16016C7.27112 9.84375 7.89734 10.1328 8.21472 10.2812C8.27661 10.3086 8.3269 10.332 8.36377 10.3516C8.58911 10.4727 8.7207 10.4531 8.85217 10.293C8.98364 10.1328 9.41577 9.58984 9.56604 9.34766C9.71631 9.10938 9.8667 9.14844 10.0734 9.23047C10.28 9.30859 11.3885 9.89062 11.614 10.0117C11.6581 10.0352 11.6992 10.0547 11.7373 10.0742Z" fill="#FFFFFF" fill-opacity="1.000000" fill-rule="evenodd"/>
</symbol>

<symbol id="x" width="32.000000" height="32.000000" viewBox="0 0 32 32" fill="none">
	<desc>
			Created with Pixso.
	</desc>
	<defs/>
	<path d="M16 0C7.16345 0 0 7.16406 0 16C0 24.8359 7.16345 32 16 32C24.8365 32 32 24.8359 32 16C32 7.16406 24.8365 0 16 0ZM15.5544 13.5586L15.5208 13.0039C15.42 11.5703 16.3042 10.2578 17.7032 9.75C18.218 9.57031 19.0909 9.54688 19.6617 9.70703C19.8855 9.77344 20.3109 10 20.613 10.2031L21.1614 10.5742L21.7657 10.3828C22.1016 10.2812 22.5492 10.1133 22.7506 10C22.9409 9.89844 23.1088 9.83984 23.1088 9.875C23.1088 10.0664 22.6947 10.7227 22.3478 11.0859C21.8777 11.5938 22.012 11.6367 22.9633 11.3008C23.5341 11.1055 23.5452 11.1055 23.4333 11.3203C23.3661 11.4336 23.0192 11.8281 22.6499 12.1914C22.0232 12.8125 21.9896 12.8789 21.9896 13.4023C21.9896 14.2031 21.609 15.875 21.2285 16.7891C20.5234 18.5078 19.0126 20.2812 17.5017 21.1758C15.3754 22.4297 12.5438 22.7461 10.16 22.0117C9.36536 21.7617 8 21.1289 8 21.0156C8 20.9805 8.41406 20.9375 8.91772 20.9258C9.96973 20.9023 11.0217 20.6094 11.9171 20.0898L12.5215 19.7266L11.8275 19.4922C10.8427 19.1523 9.9585 18.3711 9.73474 17.6367C9.66748 17.3984 9.68994 17.3906 10.3167 17.3906L10.9658 17.3789L10.4174 17.1172C9.76831 16.7891 9.17517 16.2383 8.88416 15.6719C8.67151 15.2656 8.40295 14.2383 8.48132 14.1562C8.50354 14.125 8.73865 14.1914 9.00732 14.2812C9.77942 14.5625 9.88025 14.4961 9.4325 14.0234C8.59314 13.1641 8.33569 11.8867 8.73865 10.6758L8.92896 10.1367L9.66748 10.8711C11.1785 12.3516 12.9579 13.2305 14.9948 13.4922L15.5544 13.5586Z" fill="#FFFFFF" fill-opacity="1.000000" fill-rule="evenodd"/>
</symbol>

<symbol id="youtube" width="32.000000" height="32.000000" viewBox="0 0 32 32" fill="none">
	<desc>
			Created with Pixso.
	</desc>
	<defs/>
	<path d="M16 0C7.16345 0 0 7.16406 0 16C0 24.8359 7.16345 32 16 32C24.8365 32 32 24.8359 32 16C32 7.16406 24.8365 0 16 0ZM22.6677 10.5C23.4021 10.6992 23.9803 11.293 24.1766 12.0469C24.5333 13.4141 24.5333 16.2656 24.5333 16.2656C24.5333 16.2656 24.5333 19.1172 24.1766 20.4844C23.9803 21.2383 23.4021 21.832 22.6677 22.0352C21.3369 22.3984 16 22.3984 16 22.3984C16 22.3984 10.6631 22.3984 9.33215 22.0352C8.59778 21.832 8.01941 21.2383 7.82324 20.4844C7.46667 19.1172 7.46667 16.2656 7.46667 16.2656C7.46667 16.2656 7.46667 13.4141 7.82324 12.0469C8.01941 11.293 8.59778 10.6992 9.33215 10.5C10.6631 10.1328 16 10.1328 16 10.1328C16 10.1328 21.3369 10.1328 22.6677 10.5Z" fill="#FFFFFF" fill-opacity="1.000000" fill-rule="evenodd"/>
</symbol>

<symbol id="big-master" width="48.750000" height="56.875000" viewBox="0 0 48.75 56.875" fill="none">
	<desc>
			Created with Pixso.
	</desc>
	<defs/>
	<rect width="48.750000" height="56.875000" fill="#FFFFFF" fill-opacity="0"/>
	<path id="Vector" d="M44.6875 56.875L40.625 56.875L40.625 50.7812C40.6218 48.0898 39.5508 45.5078 37.6469 43.6016C35.7428 41.6992 33.1614 40.6289 30.4688 40.625L18.2812 40.625C15.5886 40.6289 13.0072 41.6992 11.1031 43.6016C9.19922 45.5078 8.12817 48.0898 8.125 50.7812L8.125 56.875L4.0625 56.875L4.0625 50.7812C4.06689 47.0117 5.56641 43.3984 8.23193 40.7305C10.8976 38.0664 14.5116 36.5664 18.2812 36.5625L30.4688 36.5625C34.2384 36.5664 37.8525 38.0664 40.5181 40.7305C43.1836 43.3984 44.6831 47.0117 44.6875 50.7812L44.6875 56.875Z" fill="#FFFFFF" fill-opacity="1.000000" fill-rule="nonzero"/>
	<path id="Vector" d="M2.03125 8.125C1.49255 8.125 0.97583 8.33984 0.594971 8.71875C0.213989 9.10156 0 9.61719 0 10.1562L0 28.4375L4.0625 28.4375L4.0625 10.1562C4.0625 9.61719 3.84851 9.10156 3.46753 8.71875C3.08667 8.33984 2.56995 8.125 2.03125 8.125Z" fill="#FFFFFF" fill-opacity="1.000000" fill-rule="nonzero"/>
	<path id="Vector" d="M0 0L0 4.0625L10.1562 4.0625L10.1562 18.2812C10.1562 22.0508 11.6543 25.668 14.3208 28.3359C16.9873 31.0039 20.604 32.5 24.375 32.5C28.146 32.5 31.7627 31.0039 34.4292 28.3359C37.0957 25.668 38.5938 22.0508 38.5938 18.2812L38.5938 4.0625L48.75 4.0625L48.75 0L0 0ZM14.2188 4.0625L34.5312 4.0625L34.5312 10.1562L14.2188 10.1562L14.2188 4.0625ZM24.375 28.4375C21.6814 28.4375 19.0981 27.3672 17.1935 25.4609C15.2888 23.5586 14.2188 20.9766 14.2188 18.2812L14.2188 14.2188L34.5312 14.2188L34.5312 18.2812C34.5312 20.9766 33.4612 23.5586 31.5565 25.4609C29.6519 27.3672 27.0686 28.4375 24.375 28.4375Z" fill="#FFFFFF" fill-opacity="1.000000" fill-rule="nonzero"/>
</symbol>

<symbol id="blue-square-points" width="204.000000" height="204.000000" viewBox="0 0 204 204" fill="none">
	<desc>
			Created with Pixso.
	</desc>
	<defs>
		<clipPath>
			<rect id="elements" width="204.000000" height="204.000000" fill="white" fill-opacity="0"/>
		</clipPath>
	</defs>
	<g clip-path="url(#clip318_15448)">
		<circle id="Ellipse 196" cx="4.000000" cy="4.000000" r="4.000000" fill="#5AC4FF" fill-opacity="1.000000"/>
		<circle id="Ellipse 230" cx="4.000000" cy="116.000000" r="4.000000" fill="#5AC4FF" fill-opacity="1.000000"/>
		<circle id="Ellipse 214" cx="116.000000" cy="4.000000" r="4.000000" fill="#5AC4FF" fill-opacity="1.000000"/>
		<circle id="Ellipse 231" cx="116.000000" cy="116.000000" r="4.000000" fill="#5AC4FF" fill-opacity="1.000000"/>
		<circle id="Ellipse 206" cx="4.000000" cy="60.000000" r="4.000000" fill="#5AC4FF" fill-opacity="1.000000"/>
		<circle id="Ellipse 232" cx="4.000000" cy="172.000000" r="4.000000" fill="#5AC4FF" fill-opacity="1.000000"/>
		<circle id="Ellipse 215" cx="116.000000" cy="60.000000" r="4.000000" fill="#5AC4FF" fill-opacity="1.000000"/>
		<circle id="Ellipse 233" cx="116.000000" cy="172.000000" r="4.000000" fill="#5AC4FF" fill-opacity="1.000000"/>
		<circle id="Ellipse 202" cx="60.000000" cy="4.000000" r="4.000000" fill="#5AC4FF" fill-opacity="1.000000"/>
		<circle id="Ellipse 234" cx="60.000000" cy="116.000000" r="4.000000" fill="#5AC4FF" fill-opacity="1.000000"/>
		<circle id="Ellipse 216" cx="172.000000" cy="4.000000" r="4.000000" fill="#5AC4FF" fill-opacity="1.000000"/>
		<circle id="Ellipse 235" cx="172.000000" cy="116.000000" r="4.000000" fill="#5AC4FF" fill-opacity="1.000000"/>
		<circle id="Ellipse 207" cx="60.000000" cy="60.000000" r="4.000000" fill="#5AC4FF" fill-opacity="1.000000"/>
		<circle id="Ellipse 236" cx="60.000000" cy="172.000000" r="4.000000" fill="#5AC4FF" fill-opacity="1.000000"/>
		<circle id="Ellipse 217" cx="172.000000" cy="60.000000" r="4.000000" fill="#5AC4FF" fill-opacity="1.000000"/>
		<circle id="Ellipse 237" cx="172.000000" cy="172.000000" r="4.000000" fill="#5AC4FF" fill-opacity="1.000000"/>
		<circle id="Ellipse 200" cx="4.000000" cy="32.000000" r="4.000000" fill="#5AC4FF" fill-opacity="1.000000"/>
		<circle id="Ellipse 238" cx="4.000000" cy="144.000000" r="4.000000" fill="#5AC4FF" fill-opacity="1.000000"/>
		<circle id="Ellipse 218" cx="116.000000" cy="32.000000" r="4.000000" fill="#5AC4FF" fill-opacity="1.000000"/>
		<circle id="Ellipse 239" cx="116.000000" cy="144.000000" r="4.000000" fill="#5AC4FF" fill-opacity="1.000000"/>
		<circle id="Ellipse 208" cx="4.000000" cy="88.000000" r="4.000000" fill="#5AC4FF" fill-opacity="1.000000"/>
		<circle id="Ellipse 240" cx="4.000000" cy="200.000000" r="4.000000" fill="#5AC4FF" fill-opacity="1.000000"/>
		<circle id="Ellipse 219" cx="116.000000" cy="88.000000" r="4.000000" fill="#5AC4FF" fill-opacity="1.000000"/>
		<circle id="Ellipse 241" cx="116.000000" cy="200.000000" r="4.000000" fill="#5AC4FF" fill-opacity="1.000000"/>
		<circle id="Ellipse 203" cx="60.000000" cy="32.000000" r="4.000000" fill="#5AC4FF" fill-opacity="1.000000"/>
		<circle id="Ellipse 242" cx="60.000000" cy="144.000000" r="4.000000" fill="#5AC4FF" fill-opacity="1.000000"/>
		<circle id="Ellipse 220" cx="172.000000" cy="32.000000" r="4.000000" fill="#5AC4FF" fill-opacity="1.000000"/>
		<circle id="Ellipse 243" cx="172.000000" cy="144.000000" r="4.000000" fill="#5AC4FF" fill-opacity="1.000000"/>
		<circle id="Ellipse 209" cx="60.000000" cy="88.000000" r="4.000000" fill="#5AC4FF" fill-opacity="1.000000"/>
		<circle id="Ellipse 244" cx="60.000000" cy="200.000000" r="4.000000" fill="#5AC4FF" fill-opacity="1.000000"/>
		<circle id="Ellipse 221" cx="172.000000" cy="88.000000" r="4.000000" fill="#5AC4FF" fill-opacity="1.000000"/>
		<circle id="Ellipse 245" cx="172.000000" cy="200.000000" r="4.000000" fill="#5AC4FF" fill-opacity="1.000000"/>
		<circle id="Ellipse 199" cx="32.000000" cy="4.000000" r="4.000000" fill="#5AC4FF" fill-opacity="1.000000"/>
		<circle id="Ellipse 246" cx="32.000000" cy="116.000000" r="4.000000" fill="#5AC4FF" fill-opacity="1.000000"/>
		<circle id="Ellipse 222" cx="144.000000" cy="4.000000" r="4.000000" fill="#5AC4FF" fill-opacity="1.000000"/>
		<circle id="Ellipse 247" cx="144.000000" cy="116.000000" r="4.000000" fill="#5AC4FF" fill-opacity="1.000000"/>
		<circle id="Ellipse 210" cx="32.000000" cy="60.000000" r="4.000000" fill="#5AC4FF" fill-opacity="1.000000"/>
		<circle id="Ellipse 248" cx="32.000000" cy="172.000000" r="4.000000" fill="#5AC4FF" fill-opacity="1.000000"/>
		<circle id="Ellipse 223" cx="144.000000" cy="60.000000" r="4.000000" fill="#5AC4FF" fill-opacity="1.000000"/>
		<circle id="Ellipse 249" cx="144.000000" cy="172.000000" r="4.000000" fill="#5AC4FF" fill-opacity="1.000000"/>
		<circle id="Ellipse 204" cx="88.000000" cy="4.000000" r="4.000000" fill="#5AC4FF" fill-opacity="1.000000"/>
		<circle id="Ellipse 250" cx="88.000000" cy="116.000000" r="4.000000" fill="#5AC4FF" fill-opacity="1.000000"/>
		<circle id="Ellipse 224" cx="200.000000" cy="4.000000" r="4.000000" fill="#5AC4FF" fill-opacity="1.000000"/>
		<circle id="Ellipse 251" cx="200.000000" cy="116.000000" r="4.000000" fill="#5AC4FF" fill-opacity="1.000000"/>
		<circle id="Ellipse 211" cx="88.000000" cy="60.000000" r="4.000000" fill="#5AC4FF" fill-opacity="1.000000"/>
		<circle id="Ellipse 252" cx="88.000000" cy="172.000000" r="4.000000" fill="#5AC4FF" fill-opacity="1.000000"/>
		<circle id="Ellipse 225" cx="200.000000" cy="60.000000" r="4.000000" fill="#5AC4FF" fill-opacity="1.000000"/>
		<circle id="Ellipse 253" cx="200.000000" cy="172.000000" r="4.000000" fill="#5AC4FF" fill-opacity="1.000000"/>
		<circle id="Ellipse 201" cx="32.000000" cy="32.000000" r="4.000000" fill="#5AC4FF" fill-opacity="1.000000"/>
		<circle id="Ellipse 254" cx="32.000000" cy="144.000000" r="4.000000" fill="#5AC4FF" fill-opacity="1.000000"/>
		<circle id="Ellipse 226" cx="144.000000" cy="32.000000" r="4.000000" fill="#5AC4FF" fill-opacity="1.000000"/>
		<circle id="Ellipse 255" cx="144.000000" cy="144.000000" r="4.000000" fill="#5AC4FF" fill-opacity="1.000000"/>
		<circle id="Ellipse 212" cx="32.000000" cy="88.000000" r="4.000000" fill="#5AC4FF" fill-opacity="1.000000"/>
		<circle id="Ellipse 256" cx="32.000000" cy="200.000000" r="4.000000" fill="#5AC4FF" fill-opacity="1.000000"/>
		<circle id="Ellipse 227" cx="144.000000" cy="88.000000" r="4.000000" fill="#5AC4FF" fill-opacity="1.000000"/>
		<circle id="Ellipse 257" cx="144.000000" cy="200.000000" r="4.000000" fill="#5AC4FF" fill-opacity="1.000000"/>
		<circle id="Ellipse 205" cx="88.000000" cy="32.000000" r="4.000000" fill="#5AC4FF" fill-opacity="1.000000"/>
		<circle id="Ellipse 258" cx="88.000000" cy="144.000000" r="4.000000" fill="#5AC4FF" fill-opacity="1.000000"/>
		<circle id="Ellipse 228" cx="200.000000" cy="32.000000" r="4.000000" fill="#5AC4FF" fill-opacity="1.000000"/>
		<circle id="Ellipse 259" cx="200.000000" cy="144.000000" r="4.000000" fill="#5AC4FF" fill-opacity="1.000000"/>
		<circle id="Ellipse 213" cx="88.000000" cy="88.000000" r="4.000000" fill="#5AC4FF" fill-opacity="1.000000"/>
		<circle id="Ellipse 260" cx="88.000000" cy="200.000000" r="4.000000" fill="#5AC4FF" fill-opacity="1.000000"/>
		<circle id="Ellipse 229" cx="200.000000" cy="88.000000" r="4.000000" fill="#5AC4FF" fill-opacity="1.000000"/>
		<circle id="Ellipse 261" cx="200.000000" cy="200.000000" r="4.000000" fill="#5AC4FF" fill-opacity="1.000000"/>
	</g>
</symbol>

<symbol id="boy" width="27.000000" height="35.000000" viewBox="0 0 27 35" fill="none">
	<desc>
			Created with Pixso.
	</desc>
	<defs/>
	<path d="M8.4375 4.92188C8.4375 2.20312 10.704 0 13.5 0C16.296 0 18.5625 2.20312 18.5625 4.92188C18.5625 7.64062 16.296 9.84375 13.5 9.84375C10.704 9.84375 8.4375 7.64062 8.4375 4.92188ZM26.3409 5.01562C25.4623 4.16016 24.0377 4.16016 23.159 5.01562L17.068 10.9375L9.93188 10.9375L3.84094 5.01562C2.96234 4.16016 1.53766 4.16016 0.658997 5.01562C-0.219666 5.87109 -0.219666 7.25391 0.658997 8.10938L7.3125 14.5781L7.3125 32.8125C7.3125 34.0195 8.31982 35 9.5625 35L10.6875 35C11.9301 35 12.9375 34.0195 12.9375 32.8125L12.9375 25.1562L14.0625 25.1562L14.0625 32.8125C14.0625 34.0195 15.0698 35 16.3125 35L17.4375 35C18.6801 35 19.6875 34.0195 19.6875 32.8125L19.6875 14.5781L26.3409 8.10938C27.2197 7.25391 27.2197 5.87109 26.3409 5.01562Z" fill="#B4E4FF" fill-opacity="1.000000" fill-rule="nonzero"/>
</symbol>

<symbol id="brain" width="70.000000" height="70.000000" viewBox="0 0 70 70" fill="none">
	<desc>
			Created with Pixso.
	</desc>
	<defs>
		<clipPath>
			<rect id="8396420_think_idea_work_mind_thinking_icon 1" width="70.000000" height="70.000000" fill="white" fill-opacity="0"/>
		</clipPath>
	</defs>
	<g clip-path="url(#clip318_7368)">
		<path id="Vector" d="M59.0623 70L26.2498 70C25.6696 70 25.1132 69.7695 24.703 69.3594C24.2928 68.9492 24.0623 68.3906 24.0623 67.8125L24.0623 61.25L19.6873 61.25C17.9468 61.25 16.2776 60.5586 15.0469 59.3281C13.8162 58.0977 13.1248 56.4258 13.1248 54.6875L13.1248 47.2891L5.58447 43.5312C5.30673 43.3906 5.06168 43.1953 4.86563 42.9531C4.66956 42.7148 4.52695 42.4336 4.44727 42.1328C4.36761 41.8359 4.35272 41.5195 4.40359 41.2148C4.45444 40.9102 4.56992 40.6172 4.74228 40.3594L13.1248 27.7617C13.2612 21.8008 15.2683 16.0312 18.8624 11.2773C22.4564 6.51953 27.4553 3.01172 33.1519 1.25C38.8484 -0.507812 44.9543 -0.433594 50.6056 1.46875C56.2568 3.36719 61.1674 6.99609 64.6426 11.8438C64.8109 12.0742 64.9318 12.3398 64.9982 12.6172C65.0646 12.8984 65.0753 13.1875 65.0297 13.4727C64.9841 13.7539 64.8831 14.0273 64.7324 14.2734C64.5817 14.5156 64.3843 14.7305 64.1515 14.8984C63.9187 15.0664 63.655 15.1875 63.3754 15.2539C63.0959 15.3203 62.806 15.3281 62.5224 15.2852C62.2387 15.2383 61.9668 15.1367 61.7222 14.9883C61.4775 14.8359 61.265 14.6406 61.0966 14.4062C58.1248 10.2734 53.9193 7.19141 49.0847 5.60156C44.2502 4.00781 39.0356 3.99219 34.1907 5.55078C29.3457 7.10938 25.12 10.1641 22.1209 14.2773C19.1219 18.3906 17.5039 23.3477 17.4998 28.4375C17.4991 28.8672 17.3713 29.2891 17.1323 29.6523L9.75604 40.7148L16.2901 43.9805C16.6537 44.1602 16.9595 44.4414 17.1732 44.7852C17.3869 45.1328 17.5 45.5312 17.4998 45.9375L17.4998 54.6875C17.4998 55.2656 17.7303 55.8242 18.1405 56.2344C18.5507 56.6445 19.1071 56.875 19.6873 56.875L26.2498 56.875C26.83 56.875 27.3864 57.1055 27.7966 57.5156C28.2068 57.9258 28.4373 58.4805 28.4373 59.0625L28.4373 65.625L56.8748 65.625L56.8748 61.1758C56.7844 54.0234 58.6326 46.9805 62.2232 40.7969C64.8892 36.3359 66.0403 31.1328 65.5045 25.9688C65.3889 24.7695 65.179 23.5859 64.8766 22.4219C64.7458 21.8672 64.8381 21.2812 65.1339 20.793C65.4297 20.3008 65.9054 19.9492 66.4591 19.8047C67.0128 19.6602 67.6005 19.7422 68.0963 20.0273C68.5922 20.3125 68.9566 20.7773 69.1116 21.3281C69.4695 22.7148 69.7196 24.1211 69.8598 25.543C70.4908 31.6445 69.1285 37.7852 65.977 43.043C62.7932 48.5508 61.1596 54.8164 61.2498 61.1758L61.2498 67.8125C61.2498 68.3906 61.0193 68.9492 60.6091 69.3594C60.1989 69.7695 59.6425 70 59.0623 70Z" fill="#FFFFFF" fill-opacity="1.000000" fill-rule="nonzero"/>
		<path id="Vector" d="M30.625 61.25L26.25 61.25C25.6698 61.25 25.1134 61.0195 24.7032 60.6094C24.293 60.1992 24.0625 59.6445 24.0625 59.0625C24.0625 58.4805 24.293 57.9258 24.7032 57.5156C25.1134 57.1055 25.6698 56.875 26.25 56.875L30.625 56.875C31.2052 56.875 31.7616 57.1055 32.1718 57.5156C32.582 57.9258 32.8125 58.4805 32.8125 59.0625C32.8125 59.6445 32.582 60.1992 32.1718 60.6094C31.7616 61.0195 31.2052 61.25 30.625 61.25Z" fill="#FFFFFF" fill-opacity="1.000000" fill-rule="nonzero"/>
		<path id="Vector" d="M43.9077 41.5625L39.2177 41.5625C38.1426 41.5625 37.1078 41.1523 36.3241 40.418C35.5405 39.6797 35.067 38.6758 35.0002 37.6016C34.0395 38.082 32.9322 38.1758 31.9041 37.8672C30.876 37.5547 30.0048 36.8672 29.468 35.9375L27.1252 31.875C26.591 30.9453 26.4309 29.8438 26.6775 28.8008C26.9241 27.7578 27.5588 26.8438 28.453 26.25C27.5588 25.6562 26.9241 24.7422 26.6775 23.6992C26.4309 22.6562 26.591 21.5547 27.1252 20.625L29.4702 16.5625C30.0069 15.6328 30.8778 14.9453 31.9054 14.6367C32.9329 14.3281 34.0397 14.4219 35.0002 14.8984C35.067 13.8242 35.5405 12.8203 36.3241 12.082C37.1078 11.3477 38.1426 10.9375 39.2177 10.9375L43.9077 10.9375C44.9832 10.9375 46.0186 11.3438 46.8024 12.082C47.5863 12.8164 48.0594 13.8242 48.1252 14.8984C49.0864 14.418 50.1945 14.3242 51.2231 14.6328C52.2517 14.9453 53.1232 15.6367 53.6596 16.5664L56.0002 20.625C56.5344 21.5547 56.6945 22.6562 56.4479 23.6992C56.2013 24.7422 55.5666 25.6562 54.6724 26.25C55.5656 26.8438 56.1996 27.7578 56.4457 28.8008C56.6918 29.8438 56.5318 30.9453 55.998 31.875L53.6508 35.9375C53.1137 36.8672 52.242 37.5547 51.2136 37.8672C50.1852 38.1758 49.0775 38.082 48.1165 37.6016C48.0508 38.6719 47.5789 39.6797 46.7968 40.4141C46.0149 41.1523 44.9816 41.5625 43.9077 41.5625ZM39.3752 37.1875L43.7502 37.1875C43.7769 36.4727 43.984 35.7812 44.3523 35.168C44.7205 34.5547 45.2379 34.0469 45.8559 33.6914C46.4739 33.3359 47.1725 33.1406 47.8861 33.125C48.5997 33.1133 49.3052 33.2812 49.9365 33.6133L52.124 29.8203C51.5193 29.4414 51.0208 28.9141 50.6753 28.2891C50.3298 27.668 50.1485 26.9648 50.1485 26.25C50.1485 25.5352 50.3298 24.832 50.6753 24.2109C51.0208 23.5859 51.5193 23.0586 52.124 22.6797L49.9365 18.8867C49.3052 19.2188 48.5997 19.3867 47.8861 19.375C47.1725 19.3594 46.4739 19.1641 45.8559 18.8086C45.2379 18.4531 44.7205 17.9453 44.3523 17.332C43.984 16.7188 43.7769 16.0273 43.7502 15.3125L39.3752 15.3125C39.3482 16.0273 39.1408 16.7188 38.7724 17.332C38.404 17.9414 37.8866 18.4492 37.2686 18.8086C36.6507 19.1641 35.9523 19.3594 35.2388 19.3711C34.5253 19.3867 33.8201 19.2188 33.189 18.8828L31.0015 22.6797C31.6062 23.0586 32.1046 23.5859 32.4502 24.2109C32.7957 24.832 32.9769 25.5352 32.9769 26.25C32.9769 26.9648 32.7957 27.668 32.4502 28.2891C32.1046 28.9141 31.6062 29.4414 31.0015 29.8203L33.189 33.6172C33.8201 33.2812 34.5253 33.1133 35.2388 33.1289C35.9523 33.1406 36.6507 33.3359 37.2686 33.6914C37.8866 34.0508 38.404 34.5586 38.7724 35.168C39.1408 35.7812 39.3482 36.4727 39.3752 37.1875Z" fill="#FFFFFF" fill-opacity="1.000000" fill-rule="nonzero"/>
		<path id="Vector" d="M41.5625 30.625C40.6972 30.625 39.8513 30.3672 39.1319 29.8867C38.4124 29.4062 37.8517 28.7227 37.5205 27.9258C37.1894 27.125 37.1028 26.2461 37.2716 25.3945C37.4404 24.5469 37.8571 23.7695 38.4689 23.1562C39.0808 22.543 39.8603 22.1289 40.709 21.9609C41.5576 21.7891 42.4373 21.875 43.2368 22.207C44.0362 22.5391 44.7195 23.1016 45.2002 23.8203C45.6809 24.5391 45.9375 25.3828 45.9375 26.25C45.9375 27.4102 45.4766 28.5234 44.6561 29.3438C43.8356 30.1641 42.7228 30.625 41.5625 30.625Z" fill="#FFFFFF" fill-opacity="1.000000" fill-rule="nonzero"/>
	</g>
</symbol>

<symbol id="computer" width="65.000000" height="65.000000" viewBox="0 0 65 65" fill="none">
	<desc>
			Created with Pixso.
	</desc>
	<defs>
		<clipPath>
			<rect id="computer 1" width="65.000000" height="65.000000" fill="white" fill-opacity="0"/>
		</clipPath>
	</defs>
	<rect id="computer 1" width="65.000000" height="65.000000" fill="#FFFFFF" fill-opacity="0"/>
	<g clip-path="url(#clip318_15815)">
		<path id="Vector" d="M54.167 5.41797L10.8337 5.41797C7.84369 5.41797 5.41699 7.84375 5.41699 10.8359L5.41699 43.3359C5.41699 46.3242 7.84369 48.75 10.8337 48.75L27.0837 48.75L27.0837 54.168L18.9587 54.168L18.9587 59.5859L46.042 59.5859L46.042 54.168L37.917 54.168L37.917 48.75L54.167 48.75C57.157 48.75 59.5837 46.3242 59.5837 43.3359L59.5837 10.8359C59.5837 7.84375 57.157 5.41797 54.167 5.41797ZM54.167 43.3359L10.8337 43.3359L10.8337 10.8359L54.167 10.8359L54.167 43.3359Z" fill="#FFFFFF" fill-opacity="1.000000" fill-rule="nonzero"/>
	</g>
</symbol>

<symbol id="diagramm" width="35.000000" height="35.000000" viewBox="0 0 35 35" fill="none">
	<desc>
			Created with Pixso.
	</desc>
	<defs/>
	<path d="M3.5 10.5L4 10.5C5.92499 10.5 7.5 12.0742 7.5 14L7.5 31.5C7.5 33.4258 5.92499 35 4 35L3.5 35C1.57501 35 0 33.4258 0 31.5L0 14C0 12.0742 1.57501 10.5 3.5 10.5ZM17.5 0C19.425 0 21 1.57422 21 3.5L21 31.5C21 33.4258 19.425 35 17.5 35C15.575 35 14 33.4258 14 31.5L14 3.5C14 1.57422 15.575 0 17.5 0ZM31.5 20C33.425 20 35 21.5742 35 23.5L35 31.5C35 33.4258 33.425 35 31.5 35C29.575 35 28 33.4258 28 31.5L28 23.5C28 21.5742 29.575 20 31.5 20Z" fill="#FFE8CE" fill-opacity="1.000000" fill-rule="nonzero"/>
</symbol>

<symbol id="facebook" width="32.000000" height="32.000000" viewBox="0 0 32 32" fill="none">
	<desc>
			Created with Pixso.
	</desc>
	<defs/>
	<path d="M16 0C7.16345 0 0 7.16406 0 16C0 24.8359 7.16345 32 16 32C24.8365 32 32 24.8359 32 16C32 7.16406 24.8365 0 16 0ZM17.6677 16.7031L17.6677 25.4062L14.066 25.4062L14.066 16.7031L12.2667 16.7031L12.2667 13.7031L14.066 13.7031L14.066 11.9023C14.066 9.45703 15.082 8 17.9688 8L20.3721 8L20.3721 11L18.8699 11C17.7461 11 17.6718 11.418 17.6718 12.2031L17.6677 13.7031L20.389 13.7031L20.0706 16.7031L17.6677 16.7031Z" fill="#FFFFFF" fill-opacity="1.000000" fill-rule="evenodd"/>
</symbol>

<symbol id="figures" width="35.000580" height="35.000000" viewBox="0 0 35.0006 35" fill="none">
	<desc>
			Created with Pixso.
	</desc>
	<defs/>
	<path d="M8.75 17.5C7.01941 17.5 5.3277 18.0117 3.88879 18.9766C2.44983 19.9375 1.32831 21.3008 0.666077 22.9023C0.00378418 24.5 -0.169495 26.2578 0.168152 27.957C0.505737 29.6562 1.33911 31.2148 2.56281 32.4375C3.7865 33.6602 5.34564 34.4961 7.04297 34.832C8.7403 35.168 10.4996 34.9961 12.0985 34.3359C13.6973 33.6719 15.0639 32.5508 16.0254 31.1094C16.9868 29.6719 17.5 27.9805 17.5 26.25C17.5 23.9297 16.5781 21.7031 14.9372 20.0625C13.2963 18.4219 11.0707 17.5 8.75 17.5ZM34.6582 13.75L27.3486 1.25C27.1232 0.871094 26.8026 0.554688 26.4182 0.335938C26.0338 0.117188 25.5988 0 25.1562 0C24.7137 0 24.2788 0.117188 23.8943 0.335938C23.5099 0.554688 23.1893 0.871094 22.964 1.25L15.6543 13.75C14.6808 15.418 15.899 17.5 17.848 17.5L32.4645 17.5C34.4135 17.5 35.6317 15.418 34.6582 13.75ZM32.8125 19.6875L21.875 19.6875C21.2949 19.6875 20.7385 19.918 20.3282 20.3281C19.918 20.7383 19.6875 21.293 19.6875 21.875L19.6875 32.8125C19.6875 33.3945 19.918 33.9492 20.3282 34.3594C20.7385 34.7695 21.2949 35 21.875 35L32.8125 35C33.3927 35 33.9491 34.7695 34.3593 34.3594C34.7695 33.9492 35 33.3945 35 32.8125L35 21.875C35 21.293 34.7695 20.7383 34.3593 20.3281C33.9491 19.918 33.3927 19.6875 32.8125 19.6875Z" fill="#F5FFC0" fill-opacity="1.000000" fill-rule="nonzero"/>
</symbol>

<symbol id="fortress" width="29.166687" height="29.167969" viewBox="0 0 29.1667 29.168" fill="none">
	<desc>
			Created with Pixso.
	</desc>
	<defs/>
	<path d="M19.6875 0L14.2188 0C13.6147 0 13.125 0.488281 13.125 1.09375L13.125 5.9375C8.17792 6.64453 4.375 10.8984 4.375 16.043L3.28125 16.043C1.46906 16.043 0 17.5117 0 19.3242L0 28.0742C0 28.6758 0.489685 29.168 1.09375 29.168L11.6667 29.168C11.868 29.168 12.0312 29.0039 12.0312 28.8008L12.0312 24.4258C12.0312 24.0234 12.3578 23.6992 12.7604 23.6992L16.4062 23.6992C16.8089 23.6992 17.1354 24.0234 17.1354 24.4258L17.1354 28.8008C17.1354 29.0039 17.2986 29.168 17.5 29.168L28.0729 29.168C28.6769 29.168 29.1667 28.6758 29.1667 28.0742L29.1667 19.3242C29.1667 17.5117 27.6976 16.043 25.8854 16.043L24.7917 16.043C24.7917 10.6484 20.61 6.23438 15.3125 5.85938L15.3125 4.375L19.6875 4.375C20.0901 4.375 20.4167 4.04688 20.4167 3.64453L20.4167 0.730469C20.4167 0.328125 20.0901 0 19.6875 0ZM19.6875 14.2188L19.6875 17.1367C19.6875 17.7383 19.1978 18.2305 18.5938 18.2305C17.9897 18.2305 17.5 17.7383 17.5 17.1367L17.5 14.2188C17.5 13.6133 17.9897 13.125 18.5938 13.125C19.1978 13.125 19.6875 13.6133 19.6875 14.2188ZM14.2188 13.125C14.8228 13.125 15.3125 13.6133 15.3125 14.2188L15.3125 17.1367C15.3125 17.7383 14.8228 18.2305 14.2188 18.2305C13.6147 18.2305 13.125 17.7383 13.125 17.1367L13.125 14.2188C13.125 13.6133 13.6147 13.125 14.2188 13.125ZM10.9375 14.2188L10.9375 17.1367C10.9375 17.7383 10.4478 18.2305 9.84375 18.2305C9.23969 18.2305 8.75 17.7383 8.75 17.1367L8.75 14.2188C8.75 13.6133 9.23969 13.125 9.84375 13.125C10.4478 13.125 10.9375 13.6133 10.9375 14.2188ZM5.46875 19.6875C6.07281 19.6875 6.5625 20.1758 6.5625 20.7812L6.5625 24.4258C6.5625 25.0312 6.07281 25.5195 5.46875 25.5195C4.86469 25.5195 4.375 25.0312 4.375 24.4258L4.375 20.7812C4.375 20.1758 4.86469 19.6875 5.46875 19.6875ZM24.7917 20.7812L24.7917 24.4258C24.7917 25.0312 24.3019 25.5195 23.6979 25.5195C23.0939 25.5195 22.6042 25.0312 22.6042 24.4258L22.6042 20.7812C22.6042 20.1758 23.0939 19.6875 23.6979 19.6875C24.3019 19.6875 24.7917 20.1758 24.7917 20.7812Z" fill="#CC9DFF" fill-opacity="1.000000" fill-rule="nonzero"/>
</symbol>

<symbol id="google-plus" width="32.000000" height="32.000000" viewBox="0 0 32 32" fill="none">
	<desc>
			Created with Pixso.
	</desc>
	<defs/>
	<path d="M0 16C0 7.16406 7.16345 0 16 0C24.8365 0 32 7.16406 32 16C32 24.8359 24.8365 32 16 32C7.16345 32 0 24.8359 0 16ZM13.072 15.543L13.072 17.2812L15.9551 17.2812C15.839 18.0273 15.0836 19.4648 13.072 19.4648C11.3363 19.4648 9.92017 18.0312 9.92017 16.2656C9.92017 14.5 11.3363 13.0664 13.072 13.0664C14.0597 13.0664 14.7206 13.4883 15.0981 13.8477L16.478 12.5234C15.592 11.6992 14.4446 11.1992 13.072 11.1992C10.2615 11.1992 7.98853 13.4648 7.98853 16.2656C7.98853 19.0664 10.2615 21.332 13.072 21.332C16.006 21.332 17.9523 19.2773 17.9523 16.3828C17.9523 16.0508 17.9159 15.7969 17.8723 15.543L13.072 15.543ZM22.5129 15.543L23.9655 15.543L23.9655 16.9922L22.5129 16.9922L22.5129 18.4375L21.0604 18.4375L21.0604 16.9922L19.608 16.9922L19.608 15.543L21.0604 15.543L21.0604 14.0938L22.5129 14.0938L22.5129 15.543Z" fill="#FFFFFF" fill-opacity="1.000000" fill-rule="evenodd"/>
</symbol>

<symbol id="instagram" width="13.991089" height="13.988281" viewBox="0 0 13.9911 13.9883" fill="none">
	<desc>
			Created with Pixso.
	</desc>
	<defs/>
	<path d="M6.2301 0.00390625C6.37878 0 6.5387 0.00390625 6.71118 0.00390625L6.99573 0.00390625C9.27405 0.00390625 9.54419 0.0117188 10.4438 0.0507812C11.2759 0.0898438 11.7274 0.226562 12.0282 0.34375C12.4265 0.5 12.7103 0.683594 13.0089 0.984375C13.3075 1.28125 13.4924 1.56641 13.6475 1.96484C13.7643 2.26562 13.9034 2.71484 13.9413 3.54688C13.9822 4.44922 13.9911 4.71875 13.9911 6.99609C13.9911 9.27344 13.9822 9.54297 13.9413 10.4414C13.9033 11.2734 13.7643 11.7266 13.6475 12.0273C13.4928 12.4258 13.3075 12.707 13.0089 13.0078C12.7102 13.3047 12.4266 13.4922 12.0282 13.6445C11.7278 13.7617 11.2759 13.9023 10.4438 13.9414C9.54431 13.9805 9.27405 13.9883 6.99573 13.9883C4.71704 13.9883 4.44702 13.9805 3.54736 13.9414C2.71545 13.9023 2.26392 13.7617 1.96289 13.6445C1.5647 13.4922 1.28015 13.3047 0.981567 13.0078C0.682861 12.707 0.498047 12.4258 0.342896 12.0273C0.226074 11.7266 0.0869141 11.2734 0.0490723 10.4414C0.00817871 9.54297 0 9.27344 0 6.99219C0 4.71484 0.00817871 4.44531 0.0490723 3.54688C0.0871582 2.71484 0.226074 2.26172 0.342896 1.96094C0.497559 1.5625 0.682861 1.28125 0.981567 0.980469C1.28015 0.683594 1.5647 0.496094 1.96289 0.34375C2.26367 0.226562 2.71545 0.0859375 3.54736 0.046875C4.33459 0.0117188 4.63977 0 6.2301 0L6.2301 0.00390625ZM11.5508 1.41797C10.9854 1.41797 10.5266 1.87891 10.5266 2.44141C10.5266 3.00781 10.9854 3.46484 11.5508 3.46484C12.1161 3.46484 12.5747 3.00781 12.5747 2.44141C12.5747 1.87891 12.1161 1.41797 11.5508 1.41797L11.5508 1.41797ZM2.6134 6.99609C2.6134 4.57812 4.57544 2.61719 6.99548 2.61719C9.41565 2.61719 11.3772 4.57812 11.3772 6.99609C11.3772 9.41797 9.41577 11.3789 6.99573 11.3789C4.57556 11.3789 2.6134 9.41797 2.6134 6.99609Z" fill="#FFFFFF" fill-opacity="1.000000" fill-rule="evenodd"/>
</symbol>

<symbol id="logotype" width="36.000000" height="36.000000" viewBox="0 0 36 36" fill="none">
	<desc>
			Created with Pixso.
	</desc>
	<defs/>
	<path d="M9.1748 10.0781C6.61047 11.25 1.21484 12.4414 0.146118 7.80078C-0.922607 3.16406 4.13367 1.14062 6.79553 0.707031C12.4829 0.0507812 24.7075 -1.32031 31.5343 3.33594C32.1088 3.78125 32.9586 4.57422 33.6636 5.60547C37.5959 12.0352 35.5874 23.6914 34.6266 29.2695L34.5718 29.5859C33.9943 32.1953 31.6772 37.0859 27.0297 35.7852C22.3821 34.4844 23.8701 29.2148 25.1951 26.7422C26.4181 24.4023 27.5356 18.7109 26.8258 18.0039C26.52 17.6992 24.7874 16.0703 19.0798 25.3203C14.8484 32.1719 9.70642 30.5977 7.19116 28.6328L6.60999 28.0625C4.62781 25.6406 2.78455 20.1641 10.2896 16.1641C19.9186 11.0312 18.369 9.24219 18.0774 8.92578C17.4006 8.19141 11.5969 8.99609 9.1748 10.0781Z" fill="#883CDA" fill-opacity="1.000000" fill-rule="evenodd"/>
</symbol>

<symbol id="pancel" width="70.000000" height="70.000000" viewBox="0 0 70 70" fill="none">
	<desc>
			Created with Pixso.
	</desc>
	<defs>
		<clipPath>
			<rect id="392507_edit_editor_pen_pencil_write_icon 1" width="70.000000" height="70.000000" fill="white" fill-opacity="0"/>
		</clipPath>
	</defs>
	<g clip-path="url(#clip318_7359)">
		<path id="Vector" d="M1419.69 301.875L1476.56 301.875L1476.56 341.25L1445.94 341.25" stroke="#FFFFFF" stroke-opacity="1.000000" stroke-width="2.000000" stroke-linejoin="round" stroke-linecap="round"/>
		<path id="Vector" d="M1428.44 341.25L1419.69 341.25L1419.69 310.625" stroke="#FFFFFF" stroke-opacity="1.000000" stroke-width="2.000000" stroke-linejoin="round" stroke-linecap="round"/>
		<path id="Vector" d="M1445.94 341.25L1428.44 354.375L1428.44 341.25" stroke="#FFFFFF" stroke-opacity="1.000000" stroke-width="2.000000" stroke-linejoin="round" stroke-linecap="round"/>
		<path id="Vector" d="M61.6262 8.37109C59.5175 6.26172 56.8444 4.92578 53.8978 4.50391C49.6082 3.89844 45.3775 5.30859 42.3172 8.37109C41.4619 9.22656 41.4619 10.6094 42.3172 11.4648C42.3631 11.5117 42.4222 11.5273 42.4703 11.5664C42.5097 11.6133 42.525 11.6719 42.5709 11.7188L48.8797 18.0273L16.2947 50.6133L11.2787 45.5977L38.9222 17.9531C39.7775 17.0977 39.7775 15.7148 38.9222 14.8594C38.0669 14.0039 36.6844 14.0039 35.829 14.8594L6.64343 44.043C6.64124 44.0469 6.63904 44.0469 6.6369 44.0508L5.01373 45.6719C4.80811 45.8789 4.64844 46.1211 4.53906 46.3867C4.43188 46.6562 4.375 46.9375 4.375 47.2188L4.375 63.4336C4.375 64.6445 5.35498 65.6211 6.5625 65.6211L22.7806 65.6211C23.3603 65.6211 23.9182 65.3945 24.3272 64.9805L61.6262 27.6836C66.9484 22.3594 66.9484 13.6953 61.6262 8.37109ZM53.2831 8.83984C55.2825 9.125 57.0981 10.0312 58.5309 11.4648C61.6132 14.5469 62.0441 19.2656 59.8741 22.8359L53.5172 16.4766L47.1384 10.0977C48.9562 8.98438 51.1066 8.53125 53.2831 8.83984ZM8.75 61.2461L8.75 49.2539L14.7438 55.25C14.7459 55.25 14.7459 55.2539 14.7459 55.2539L14.7503 55.2539L20.7419 61.2461L8.75 61.2461ZM19.3878 53.7031L51.9706 21.1211L56.9866 26.1367L24.4016 58.7227L19.3878 53.7031Z" fill="#FFFFFF" fill-opacity="1.000000" fill-rule="nonzero"/>
	</g>
</symbol>

<symbol id="points-blue" width="168.000000" height="288.000000" viewBox="0 0 168 288" fill="none">
	<desc>
			Created with Pixso.
	</desc>
	<defs>
		<clipPath>
			<rect id="add element" width="168.000000" height="288.000000" fill="white" fill-opacity="0"/>
		</clipPath>
	</defs>
	<g clip-path="url(#clip318_15672)">
		<circle id="Ellipse 28" cx="4.000000" cy="4.000000" r="4.000000" fill="#5AC4FF" fill-opacity="1.000000"/>
		<circle id="Ellipse 52" cx="4.000000" cy="164.000000" r="4.000000" fill="#5AC4FF" fill-opacity="1.000000"/>
		<circle id="Ellipse 40" cx="4.000000" cy="84.000000" r="4.000000" fill="#5AC4FF" fill-opacity="1.000000"/>
		<circle id="Ellipse 53" cx="4.000000" cy="244.000000" r="4.000000" fill="#5AC4FF" fill-opacity="1.000000"/>
		<circle id="Ellipse 34" cx="124.000000" cy="4.000000" r="4.000000" fill="#5AC4FF" fill-opacity="1.000000"/>
		<circle id="Ellipse 54" cx="124.000000" cy="164.000000" r="4.000000" fill="#5AC4FF" fill-opacity="1.000000"/>
		<circle id="Ellipse 41" cx="124.000000" cy="84.000000" r="4.000000" fill="#5AC4FF" fill-opacity="1.000000"/>
		<circle id="Ellipse 55" cx="124.000000" cy="244.000000" r="4.000000" fill="#5AC4FF" fill-opacity="1.000000"/>
		<circle id="Ellipse 31" cx="4.000000" cy="44.000000" r="4.000000" fill="#5AC4FF" fill-opacity="1.000000"/>
		<circle id="Ellipse 56" cx="4.000000" cy="204.000000" r="4.000000" fill="#5AC4FF" fill-opacity="1.000000"/>
		<circle id="Ellipse 42" cx="4.000000" cy="124.000000" r="4.000000" fill="#5AC4FF" fill-opacity="1.000000"/>
		<circle id="Ellipse 57" cx="4.000000" cy="284.000000" r="4.000000" fill="#5AC4FF" fill-opacity="1.000000"/>
		<circle id="Ellipse 35" cx="124.000000" cy="44.000000" r="4.000000" fill="#5AC4FF" fill-opacity="1.000000"/>
		<circle id="Ellipse 58" cx="124.000000" cy="204.000000" r="4.000000" fill="#5AC4FF" fill-opacity="1.000000"/>
		<circle id="Ellipse 43" cx="124.000000" cy="124.000000" r="4.000000" fill="#5AC4FF" fill-opacity="1.000000"/>
		<circle id="Ellipse 59" cx="124.000000" cy="284.000000" r="4.000000" fill="#5AC4FF" fill-opacity="1.000000"/>
		<circle id="Ellipse 29" cx="44.000000" cy="4.000000" r="4.000000" fill="#5AC4FF" fill-opacity="1.000000"/>
		<circle id="Ellipse 60" cx="44.000000" cy="164.000000" r="4.000000" fill="#5AC4FF" fill-opacity="1.000000"/>
		<circle id="Ellipse 44" cx="44.000000" cy="84.000000" r="4.000000" fill="#5AC4FF" fill-opacity="1.000000"/>
		<circle id="Ellipse 61" cx="44.000000" cy="244.000000" r="4.000000" fill="#5AC4FF" fill-opacity="1.000000"/>
		<circle id="Ellipse 36" cx="164.000000" cy="4.000000" r="4.000000" fill="#5AC4FF" fill-opacity="1.000000"/>
		<circle id="Ellipse 62" cx="164.000000" cy="164.000000" r="4.000000" fill="#5AC4FF" fill-opacity="1.000000"/>
		<circle id="Ellipse 45" cx="164.000000" cy="84.000000" r="4.000000" fill="#5AC4FF" fill-opacity="1.000000"/>
		<circle id="Ellipse 63" cx="164.000000" cy="244.000000" r="4.000000" fill="#5AC4FF" fill-opacity="1.000000"/>
		<circle id="Ellipse 32" cx="44.000000" cy="44.000000" r="4.000000" fill="#5AC4FF" fill-opacity="1.000000"/>
		<circle id="Ellipse 64" cx="44.000000" cy="204.000000" r="4.000000" fill="#5AC4FF" fill-opacity="1.000000"/>
		<circle id="Ellipse 46" cx="44.000000" cy="124.000000" r="4.000000" fill="#5AC4FF" fill-opacity="1.000000"/>
		<circle id="Ellipse 65" cx="44.000000" cy="284.000000" r="4.000000" fill="#5AC4FF" fill-opacity="1.000000"/>
		<circle id="Ellipse 37" cx="164.000000" cy="44.000000" r="4.000000" fill="#5AC4FF" fill-opacity="1.000000"/>
		<circle id="Ellipse 66" cx="164.000000" cy="204.000000" r="4.000000" fill="#5AC4FF" fill-opacity="1.000000"/>
		<circle id="Ellipse 47" cx="164.000000" cy="124.000000" r="4.000000" fill="#5AC4FF" fill-opacity="1.000000"/>
		<circle id="Ellipse 67" cx="164.000000" cy="284.000000" r="4.000000" fill="#5AC4FF" fill-opacity="1.000000"/>
		<circle id="Ellipse 30" cx="84.000000" cy="4.000000" r="4.000000" fill="#5AC4FF" fill-opacity="1.000000"/>
		<circle id="Ellipse 68" cx="84.000000" cy="164.000000" r="4.000000" fill="#5AC4FF" fill-opacity="1.000000"/>
		<circle id="Ellipse 48" cx="84.000000" cy="84.000000" r="4.000000" fill="#5AC4FF" fill-opacity="1.000000"/>
		<circle id="Ellipse 69" cx="84.000000" cy="244.000000" r="4.000000" fill="#5AC4FF" fill-opacity="1.000000"/>
		<circle id="Ellipse 33" cx="84.000000" cy="44.000000" r="4.000000" fill="#5AC4FF" fill-opacity="1.000000"/>
		<circle id="Ellipse 72" cx="84.000000" cy="204.000000" r="4.000000" fill="#5AC4FF" fill-opacity="1.000000"/>
		<circle id="Ellipse 50" cx="84.000000" cy="124.000000" r="4.000000" fill="#5AC4FF" fill-opacity="1.000000"/>
		<circle id="Ellipse 73" cx="84.000000" cy="284.000000" r="4.000000" fill="#5AC4FF" fill-opacity="1.000000"/>
	</g>
</symbol>

<symbol id="red-square-points" width="204.000000" height="204.000000" viewBox="0 0 204 204" fill="none">
	<desc>
			Created with Pixso.
	</desc>
	<defs>
		<clipPath>
			<rect id="elements" width="204.000000" height="204.000000" fill="white" fill-opacity="0"/>
		</clipPath>
	</defs>
	<g clip-path="url(#clip3740_3158)">
		<circle id="Ellipse 196" cx="4.000000" cy="4.000000" r="4.000000" fill="#FB7C84" fill-opacity="1.000000"/>
		<circle id="Ellipse 230" cx="4.000000" cy="116.000000" r="4.000000" fill="#FB7C84" fill-opacity="1.000000"/>
		<circle id="Ellipse 214" cx="116.000000" cy="4.000000" r="4.000000" fill="#FB7C84" fill-opacity="1.000000"/>
		<circle id="Ellipse 231" cx="116.000000" cy="116.000000" r="4.000000" fill="#FB7C84" fill-opacity="1.000000"/>
		<circle id="Ellipse 206" cx="4.000000" cy="60.000000" r="4.000000" fill="#FB7C84" fill-opacity="1.000000"/>
		<circle id="Ellipse 232" cx="4.000000" cy="172.000000" r="4.000000" fill="#FB7C84" fill-opacity="1.000000"/>
		<circle id="Ellipse 215" cx="116.000000" cy="60.000000" r="4.000000" fill="#FB7C84" fill-opacity="1.000000"/>
		<circle id="Ellipse 233" cx="116.000000" cy="172.000000" r="4.000000" fill="#FB7C84" fill-opacity="1.000000"/>
		<circle id="Ellipse 202" cx="60.000000" cy="4.000000" r="4.000000" fill="#FB7C84" fill-opacity="1.000000"/>
		<circle id="Ellipse 234" cx="60.000000" cy="116.000000" r="4.000000" fill="#FB7C84" fill-opacity="1.000000"/>
		<circle id="Ellipse 216" cx="172.000000" cy="4.000000" r="4.000000" fill="#FB7C84" fill-opacity="1.000000"/>
		<circle id="Ellipse 235" cx="172.000000" cy="116.000000" r="4.000000" fill="#FB7C84" fill-opacity="1.000000"/>
		<circle id="Ellipse 207" cx="60.000000" cy="60.000000" r="4.000000" fill="#FB7C84" fill-opacity="1.000000"/>
		<circle id="Ellipse 236" cx="60.000000" cy="172.000000" r="4.000000" fill="#FB7C84" fill-opacity="1.000000"/>
		<circle id="Ellipse 217" cx="172.000000" cy="60.000000" r="4.000000" fill="#FB7C84" fill-opacity="1.000000"/>
		<circle id="Ellipse 237" cx="172.000000" cy="172.000000" r="4.000000" fill="#FB7C84" fill-opacity="1.000000"/>
		<circle id="Ellipse 200" cx="4.000000" cy="32.000000" r="4.000000" fill="#FB7C84" fill-opacity="1.000000"/>
		<circle id="Ellipse 238" cx="4.000000" cy="144.000000" r="4.000000" fill="#FB7C84" fill-opacity="1.000000"/>
		<circle id="Ellipse 218" cx="116.000000" cy="32.000000" r="4.000000" fill="#FB7C84" fill-opacity="1.000000"/>
		<circle id="Ellipse 239" cx="116.000000" cy="144.000000" r="4.000000" fill="#FB7C84" fill-opacity="1.000000"/>
		<circle id="Ellipse 208" cx="4.000000" cy="88.000000" r="4.000000" fill="#FB7C84" fill-opacity="1.000000"/>
		<circle id="Ellipse 240" cx="4.000000" cy="200.000000" r="4.000000" fill="#FB7C84" fill-opacity="1.000000"/>
		<circle id="Ellipse 219" cx="116.000000" cy="88.000000" r="4.000000" fill="#FB7C84" fill-opacity="1.000000"/>
		<circle id="Ellipse 241" cx="116.000000" cy="200.000000" r="4.000000" fill="#FB7C84" fill-opacity="1.000000"/>
		<circle id="Ellipse 203" cx="60.000000" cy="32.000000" r="4.000000" fill="#FB7C84" fill-opacity="1.000000"/>
		<circle id="Ellipse 242" cx="60.000000" cy="144.000000" r="4.000000" fill="#FB7C84" fill-opacity="1.000000"/>
		<circle id="Ellipse 220" cx="172.000000" cy="32.000000" r="4.000000" fill="#FB7C84" fill-opacity="1.000000"/>
		<circle id="Ellipse 243" cx="172.000000" cy="144.000000" r="4.000000" fill="#FB7C84" fill-opacity="1.000000"/>
		<circle id="Ellipse 209" cx="60.000000" cy="88.000000" r="4.000000" fill="#FB7C84" fill-opacity="1.000000"/>
		<circle id="Ellipse 244" cx="60.000000" cy="200.000000" r="4.000000" fill="#FB7C84" fill-opacity="1.000000"/>
		<circle id="Ellipse 221" cx="172.000000" cy="88.000000" r="4.000000" fill="#FB7C84" fill-opacity="1.000000"/>
		<circle id="Ellipse 245" cx="172.000000" cy="200.000000" r="4.000000" fill="#FB7C84" fill-opacity="1.000000"/>
		<circle id="Ellipse 199" cx="32.000000" cy="4.000000" r="4.000000" fill="#FB7C84" fill-opacity="1.000000"/>
		<circle id="Ellipse 246" cx="32.000000" cy="116.000000" r="4.000000" fill="#FB7C84" fill-opacity="1.000000"/>
		<circle id="Ellipse 222" cx="144.000000" cy="4.000000" r="4.000000" fill="#FB7C84" fill-opacity="1.000000"/>
		<circle id="Ellipse 247" cx="144.000000" cy="116.000000" r="4.000000" fill="#FB7C84" fill-opacity="1.000000"/>
		<circle id="Ellipse 210" cx="32.000000" cy="60.000000" r="4.000000" fill="#FB7C84" fill-opacity="1.000000"/>
		<circle id="Ellipse 248" cx="32.000000" cy="172.000000" r="4.000000" fill="#FB7C84" fill-opacity="1.000000"/>
		<circle id="Ellipse 223" cx="144.000000" cy="60.000000" r="4.000000" fill="#FB7C84" fill-opacity="1.000000"/>
		<circle id="Ellipse 249" cx="144.000000" cy="172.000000" r="4.000000" fill="#FB7C84" fill-opacity="1.000000"/>
		<circle id="Ellipse 204" cx="88.000000" cy="4.000000" r="4.000000" fill="#FB7C84" fill-opacity="1.000000"/>
		<circle id="Ellipse 250" cx="88.000000" cy="116.000000" r="4.000000" fill="#FB7C84" fill-opacity="1.000000"/>
		<circle id="Ellipse 224" cx="200.000000" cy="4.000000" r="4.000000" fill="#FB7C84" fill-opacity="1.000000"/>
		<circle id="Ellipse 251" cx="200.000000" cy="116.000000" r="4.000000" fill="#FB7C84" fill-opacity="1.000000"/>
		<circle id="Ellipse 211" cx="88.000000" cy="60.000000" r="4.000000" fill="#FB7C84" fill-opacity="1.000000"/>
		<circle id="Ellipse 252" cx="88.000000" cy="172.000000" r="4.000000" fill="#FB7C84" fill-opacity="1.000000"/>
		<circle id="Ellipse 225" cx="200.000000" cy="60.000000" r="4.000000" fill="#FB7C84" fill-opacity="1.000000"/>
		<circle id="Ellipse 253" cx="200.000000" cy="172.000000" r="4.000000" fill="#FB7C84" fill-opacity="1.000000"/>
		<circle id="Ellipse 201" cx="32.000000" cy="32.000000" r="4.000000" fill="#FB7C84" fill-opacity="1.000000"/>
		<circle id="Ellipse 254" cx="32.000000" cy="144.000000" r="4.000000" fill="#FB7C84" fill-opacity="1.000000"/>
		<circle id="Ellipse 226" cx="144.000000" cy="32.000000" r="4.000000" fill="#FB7C84" fill-opacity="1.000000"/>
		<circle id="Ellipse 255" cx="144.000000" cy="144.000000" r="4.000000" fill="#FB7C84" fill-opacity="1.000000"/>
		<circle id="Ellipse 212" cx="32.000000" cy="88.000000" r="4.000000" fill="#FB7C84" fill-opacity="1.000000"/>
		<circle id="Ellipse 256" cx="32.000000" cy="200.000000" r="4.000000" fill="#FB7C84" fill-opacity="1.000000"/>
		<circle id="Ellipse 227" cx="144.000000" cy="88.000000" r="4.000000" fill="#FB7C84" fill-opacity="1.000000"/>
		<circle id="Ellipse 257" cx="144.000000" cy="200.000000" r="4.000000" fill="#FB7C84" fill-opacity="1.000000"/>
		<circle id="Ellipse 205" cx="88.000000" cy="32.000000" r="4.000000" fill="#FB7C84" fill-opacity="1.000000"/>
		<circle id="Ellipse 258" cx="88.000000" cy="144.000000" r="4.000000" fill="#FB7C84" fill-opacity="1.000000"/>
		<circle id="Ellipse 228" cx="200.000000" cy="32.000000" r="4.000000" fill="#FB7C84" fill-opacity="1.000000"/>
		<circle id="Ellipse 259" cx="200.000000" cy="144.000000" r="4.000000" fill="#FB7C84" fill-opacity="1.000000"/>
		<circle id="Ellipse 213" cx="88.000000" cy="88.000000" r="4.000000" fill="#FB7C84" fill-opacity="1.000000"/>
		<circle id="Ellipse 260" cx="88.000000" cy="200.000000" r="4.000000" fill="#FB7C84" fill-opacity="1.000000"/>
		<circle id="Ellipse 229" cx="200.000000" cy="88.000000" r="4.000000" fill="#FB7C84" fill-opacity="1.000000"/>
		<circle id="Ellipse 261" cx="200.000000" cy="200.000000" r="4.000000" fill="#FB7C84" fill-opacity="1.000000"/>
	</g>
</symbol>

<symbol id="small-master" width="35.000000" height="35.000000" viewBox="0 0 35 35" fill="none">
	<desc>
			Created with Pixso.
	</desc>
	<defs/>
	<path d="M24.9531 21.918L17.5 28.4375L10.0469 21.918C4.46094 22.1289 0 26.1289 0 31.0625L0 31.7188C0 33.5312 1.67969 35 3.75 35L31.25 35C33.3203 35 35 33.5312 35 31.7188L35 31.0625C35 26.1289 30.5391 22.1289 24.9531 21.918ZM1.0625 5.45703L1.5625 5.55859L1.5625 9.55078C1.01562 9.83984 0.625 10.3359 0.625 10.9375C0.625 11.5117 0.984375 11.9922 1.49219 12.2852L0.273438 16.543C0.140625 17.0156 0.4375 17.5 0.867188 17.5L4.13281 17.5C4.5625 17.5 4.85938 17.0156 4.72656 16.543L3.50781 12.2852C4.01562 11.9922 4.375 11.5117 4.375 10.9375C4.375 10.3359 3.98438 9.83984 3.4375 9.55078L3.4375 5.95703L8.59375 7.04297C7.92188 8.21875 7.5 9.53125 7.5 10.9375C7.5 15.7734 11.9766 19.6875 17.5 19.6875C23.0234 19.6875 27.5 15.7734 27.5 10.9375C27.5 9.53125 27.0859 8.21875 26.4062 7.04297L33.9297 5.45703C35.3516 5.15625 35.3516 3.60547 33.9297 3.30469L19.0547 0.160156C18.0391 -0.0546875 16.9688 -0.0546875 15.9531 0.160156L1.0625 3.29688C-0.351562 3.59766 -0.351562 5.15625 1.0625 5.45703Z" fill="#ACFFD7" fill-opacity="1.000000" fill-rule="nonzero"/>
</symbol>

</svg>
