<svg width="32.000000" height="32.000000" viewBox="0 0 32 32" fill="none" xmlns="http://www.w3.org/2000/svg" xmlns:xlink="http://www.w3.org/1999/xlink">
	<desc>
			Created with Pixso.
	</desc>
	<defs>
		<clipPath id="clip9_1166">
			<rect id="1488803316" width="32.000000" height="32.000000" fill="white" fill-opacity="0"></rect>
		</clipPath>
	</defs>
	<rect id="1488803316" width="32.000000" height="32.000000" fill="#FFFFFF" fill-opacity="0"></rect>
	<g clip-path="url('#clip9_1166')">
		<path id="Vector" d="M16 0C7.16 0 0 7.16 0 16C0 24.83 7.16 32 16 32C24.83 32 32 24.83 32 16C32 7.16 24.83 0 16 0ZM12.48 7.51C13.39 7.47 13.68 7.46 16 7.46L15.99 7.46C18.31 7.46 18.6 7.47 19.51 7.51C20.42 7.55 21.04 7.7 21.58 7.91C22.15 8.13 22.62 8.42 23.1 8.89C23.57 9.37 23.86 9.84 24.08 10.41C24.29 10.95 24.43 11.57 24.48 12.48C24.52 13.39 24.53 13.68 24.53 16C24.53 18.31 24.52 18.6 24.48 19.51C24.43 20.42 24.29 21.04 24.08 21.58C23.86 22.14 23.57 22.62 23.1 23.1C22.62 23.57 22.15 23.86 21.58 24.08C21.04 24.29 20.42 24.44 19.51 24.48C18.6 24.52 18.31 24.53 15.99 24.53C13.68 24.53 13.39 24.52 12.48 24.48C11.57 24.44 10.95 24.29 10.41 24.08C9.84 23.86 9.37 23.57 8.89 23.1C8.42 22.62 8.13 22.14 7.91 21.58C7.7 21.04 7.56 20.42 7.51 19.51C7.47 18.6 7.46 18.31 7.46 16C7.46 13.68 7.47 13.39 7.51 12.48C7.55 11.57 7.7 10.95 7.91 10.41C8.13 9.84 8.42 9.37 8.89 8.89C9.37 8.42 9.84 8.13 10.41 7.91C10.95 7.7 11.57 7.55 12.48 7.51Z" fill="#FFFFFF" fill-opacity="1.000000" fill-rule="evenodd"></path>
		<path id="Vector" d="M15.23 9C15.38 9 15.54 9 15.71 9L16 9C18.27 9 18.54 9.01 19.44 9.05C20.28 9.09 20.73 9.23 21.03 9.34C21.43 9.5 21.71 9.68 22.01 9.98C22.31 10.28 22.49 10.57 22.65 10.96C22.76 11.26 22.9 11.71 22.94 12.55C22.98 13.45 22.99 13.72 22.99 16C22.99 18.27 22.98 18.54 22.94 19.44C22.9 20.27 22.76 20.73 22.65 21.03C22.49 21.42 22.31 21.71 22.01 22.01C21.71 22.3 21.43 22.49 21.03 22.64C20.73 22.76 20.28 22.9 19.44 22.94C18.54 22.98 18.27 22.99 16 22.99C13.72 22.99 13.45 22.98 12.55 22.94C11.72 22.9 11.26 22.76 10.96 22.64C10.56 22.49 10.28 22.3 9.98 22.01C9.68 21.71 9.5 21.42 9.34 21.03C9.23 20.73 9.09 20.27 9.05 19.44C9.01 18.54 9 18.27 9 15.99C9 13.71 9.01 13.44 9.05 12.55C9.09 11.71 9.23 11.26 9.34 10.96C9.5 10.56 9.68 10.28 9.98 9.98C10.28 9.68 10.56 9.5 10.96 9.34C11.26 9.23 11.72 9.08 12.55 9.05C13.33 9.01 13.64 9 15.23 9L15.23 9ZM20.55 10.42C19.99 10.42 19.53 10.88 19.53 11.44C19.53 12.01 19.99 12.46 20.55 12.46C21.12 12.46 21.57 12.01 21.57 11.44C21.57 10.88 21.12 10.42 20.55 10.42L20.55 10.42ZM11.61 16C11.61 13.58 13.58 11.62 16 11.62C18.42 11.62 20.38 13.58 20.38 16C20.38 18.42 18.42 20.38 16 20.38C13.58 20.38 11.61 18.42 11.61 16Z" fill="#FFFFFF" fill-opacity="1.000000" fill-rule="evenodd"></path>
		<path id="Vector" d="M16 13.15C17.57 13.15 18.84 14.42 18.84 16C18.84 17.57 17.57 18.84 16 18.84C14.42 18.84 13.15 17.57 13.15 16C13.15 14.42 14.42 13.15 16 13.15Z" fill="#FFFFFF" fill-opacity="1.000000" fill-rule="nonzero"></path>
	</g>
</svg>
